<svg class="main-svg" xmlns="http://www.w3.org/2000/svg" xmlns:xlink="http://www.w3.org/1999/xlink" width="1600" height="800" style="" viewBox="0 0 1600 800"><rect x="0" y="0" width="1600" height="800" style="fill: rgb(255, 255, 255); fill-opacity: 1;"/><defs id="defs-8285f5"><g class="clips"><clipPath id="clip8285f5xyplot" class="plotclip"><rect width="1228" height="620"/></clipPath><clipPath class="axesclip" id="clip8285f5x"><rect x="102" y="0" width="1228" height="800"/></clipPath><clipPath class="axesclip" id="clip8285f5y"><rect x="0" y="100" width="1600" height="620"/></clipPath><clipPath class="axesclip" id="clip8285f5xy"><rect x="102" y="100" width="1228" height="620"/></clipPath></g><g class="gradients"/><g class="patterns"/></defs><g class="bglayer"/><g class="layer-below"><g class="imagelayer"/><g class="shapelayer"/></g><g class="cartesianlayer"><g class="subplot xy"><g class="layer-subplot"><g class="shapelayer"/><g class="imagelayer"/></g><g class="minor-gridlayer"><g class="x"/><g class="y"/></g><g class="gridlayer"><g class="x"><path class="xgrid crisp" transform="translate(238.46,0)" d="M0,100v620" style="stroke: rgb(235, 240, 248); stroke-opacity: 1; stroke-width: 1px;"/><path class="xgrid crisp" transform="translate(302.13,0)" d="M0,100v620" style="stroke: rgb(235, 240, 248); stroke-opacity: 1; stroke-width: 1px;"/><path class="xgrid crisp" transform="translate(365.81,0)" d="M0,100v620" style="stroke: rgb(235, 240, 248); stroke-opacity: 1; stroke-width: 1px;"/><path class="xgrid crisp" transform="translate(429.48,0)" d="M0,100v620" style="stroke: rgb(235, 240, 248); stroke-opacity: 1; stroke-width: 1px;"/><path class="xgrid crisp" transform="translate(493.15,0)" d="M0,100v620" style="stroke: rgb(235, 240, 248); stroke-opacity: 1; stroke-width: 1px;"/><path class="xgrid crisp" transform="translate(556.8199999999999,0)" d="M0,100v620" style="stroke: rgb(235, 240, 248); stroke-opacity: 1; stroke-width: 1px;"/><path class="xgrid crisp" transform="translate(620.49,0)" d="M0,100v620" style="stroke: rgb(235, 240, 248); stroke-opacity: 1; stroke-width: 1px;"/><path class="xgrid crisp" transform="translate(684.16,0)" d="M0,100v620" style="stroke: rgb(235, 240, 248); stroke-opacity: 1; stroke-width: 1px;"/><path class="xgrid crisp" transform="translate(747.84,0)" d="M0,100v620" style="stroke: rgb(235, 240, 248); stroke-opacity: 1; stroke-width: 1px;"/><path class="xgrid crisp" transform="translate(811.51,0)" d="M0,100v620" style="stroke: rgb(235, 240, 248); stroke-opacity: 1; stroke-width: 1px;"/><path class="xgrid crisp" transform="translate(875.18,0)" d="M0,100v620" style="stroke: rgb(235, 240, 248); stroke-opacity: 1; stroke-width: 1px;"/><path class="xgrid crisp" transform="translate(938.85,0)" d="M0,100v620" style="stroke: rgb(235, 240, 248); stroke-opacity: 1; stroke-width: 1px;"/><path class="xgrid crisp" transform="translate(1002.52,0)" d="M0,100v620" style="stroke: rgb(235, 240, 248); stroke-opacity: 1; stroke-width: 1px;"/><path class="xgrid crisp" transform="translate(1066.19,0)" d="M0,100v620" style="stroke: rgb(235, 240, 248); stroke-opacity: 1; stroke-width: 1px;"/><path class="xgrid crisp" transform="translate(1129.87,0)" d="M0,100v620" style="stroke: rgb(235, 240, 248); stroke-opacity: 1; stroke-width: 1px;"/><path class="xgrid crisp" transform="translate(1193.54,0)" d="M0,100v620" style="stroke: rgb(235, 240, 248); stroke-opacity: 1; stroke-width: 1px;"/><path class="xgrid crisp" transform="translate(1257.21,0)" d="M0,100v620" style="stroke: rgb(235, 240, 248); stroke-opacity: 1; stroke-width: 1px;"/></g><g class="y"><path class="ygrid crisp" transform="translate(0,530.02)" d="M102,0h1228" style="stroke: rgb(235, 240, 248); stroke-opacity: 1; stroke-width: 1px;"/><path class="ygrid crisp" transform="translate(0,418.43)" d="M102,0h1228" style="stroke: rgb(235, 240, 248); stroke-opacity: 1; stroke-width: 1px;"/><path class="ygrid crisp" transform="translate(0,306.84000000000003)" d="M102,0h1228" style="stroke: rgb(235, 240, 248); stroke-opacity: 1; stroke-width: 1px;"/><path class="ygrid crisp" transform="translate(0,195.25)" d="M102,0h1228" style="stroke: rgb(235, 240, 248); stroke-opacity: 1; stroke-width: 1px;"/></g></g><g class="zerolinelayer"><path class="xzl zl crisp" transform="translate(174.79000000000002,0)" d="M0,100v620" style="stroke: rgb(235, 240, 248); stroke-opacity: 1; stroke-width: 2px;"/><path class="yzl zl crisp" transform="translate(0,641.61)" d="M102,0h1228" style="stroke: rgb(235, 240, 248); stroke-opacity: 1; stroke-width: 2px;"/></g><g class="layer-between"><g class="shapelayer"/><g class="imagelayer"/></g><path class="xlines-below"/><path class="ylines-below"/><g class="overlines-below"/><g class="xaxislayer-below"/><g class="yaxislayer-below"/><g class="overaxes-below"/><g class="overplot"><g class="xy" transform="translate(102,100)" clip-path="url(#clip8285f5xyplot)"><g class="scatterlayer mlayer"><g class="trace scatter trace8341f3" style="stroke-miterlimit: 2; opacity: 1;"><g class="fills"/><g class="errorbars"><g class="errorbar" style="opacity: 1;"><path class="yerror" d="M61.150000000000006,541.61h8m-4,0V541.61m-4,0h8" style="vector-effect: none; stroke-width: 2px; stroke: rgb(27, 158, 119); stroke-opacity: 1;"/></g><g class="errorbar" style="opacity: 1;"><path class="yerror" d="M124.82,541.61h8m-4,0V541.61m-4,0h8" style="vector-effect: none; stroke-width: 2px; stroke: rgb(27, 158, 119); stroke-opacity: 1;"/></g><g class="errorbar" style="opacity: 1;"><path class="yerror" d="M188.49,541.61h8m-4,0V541.61m-4,0h8" style="vector-effect: none; stroke-width: 2px; stroke: rgb(27, 158, 119); stroke-opacity: 1;"/></g><g class="errorbar" style="opacity: 1;"><path class="yerror" d="M252.17000000000002,541.61h8m-4,0V541.61m-4,0h8" style="vector-effect: none; stroke-width: 2px; stroke: rgb(27, 158, 119); stroke-opacity: 1;"/></g><g class="errorbar" style="opacity: 1;"><path class="yerror" d="M315.84,537.81h8m-4,0V538.65m-4,0h8" style="vector-effect: none; stroke-width: 2px; stroke: rgb(27, 158, 119); stroke-opacity: 1;"/></g><g class="errorbar" style="opacity: 1;"><path class="yerror" d="M379.51,524.89h8m-4,0V545.37m-4,0h8" style="vector-effect: none; stroke-width: 2px; stroke: rgb(27, 158, 119); stroke-opacity: 1;"/></g><g class="errorbar" style="opacity: 1;"><path class="yerror" d="M443.18,35.74h8m-4,0V369.86m-4,0h8" style="vector-effect: none; stroke-width: 2px; stroke: rgb(27, 158, 119); stroke-opacity: 1;"/></g><g class="errorbar" style="opacity: 1;"><path class="yerror" d="M506.85,507.88h8m-4,0V535.94m-4,0h8" style="vector-effect: none; stroke-width: 2px; stroke: rgb(27, 158, 119); stroke-opacity: 1;"/></g><g class="errorbar" style="opacity: 1;"><path class="yerror" d="M570.52,503.6h8m-4,0V554.58m-4,0h8" style="vector-effect: none; stroke-width: 2px; stroke: rgb(27, 158, 119); stroke-opacity: 1;"/></g><g class="errorbar" style="opacity: 1;"><path class="yerror" d="M634.2,502.28h8m-4,0V542.35m-4,0h8" style="vector-effect: none; stroke-width: 2px; stroke: rgb(27, 158, 119); stroke-opacity: 1;"/></g><g class="errorbar" style="opacity: 1;"><path class="yerror" d="M697.87,467.52h8m-4,0V558.08m-4,0h8" style="vector-effect: none; stroke-width: 2px; stroke: rgb(27, 158, 119); stroke-opacity: 1;"/></g><g class="errorbar" style="opacity: 1;"><path class="yerror" d="M761.54,523.7h8m-4,0V527.13m-4,0h8" style="vector-effect: none; stroke-width: 2px; stroke: rgb(27, 158, 119); stroke-opacity: 1;"/></g><g class="errorbar" style="opacity: 1;"><path class="yerror" d="M825.21,520.66h8m-4,0V544.32m-4,0h8" style="vector-effect: none; stroke-width: 2px; stroke: rgb(27, 158, 119); stroke-opacity: 1;"/></g><g class="errorbar" style="opacity: 1;"><path class="yerror" d="M888.88,519.59h8m-4,0V519.86m-4,0h8" style="vector-effect: none; stroke-width: 2px; stroke: rgb(27, 158, 119); stroke-opacity: 1;"/></g><g class="errorbar" style="opacity: 1;"><path class="yerror" d="M952.55,522.9h8m-4,0V526.13m-4,0h8" style="vector-effect: none; stroke-width: 2px; stroke: rgb(27, 158, 119); stroke-opacity: 1;"/></g><g class="errorbar" style="opacity: 1;"><path class="yerror" d="M1016.23,523.91h8m-4,0V528.25m-4,0h8" style="vector-effect: none; stroke-width: 2px; stroke: rgb(27, 158, 119); stroke-opacity: 1;"/></g><g class="errorbar" style="opacity: 1;"><path class="yerror" d="M1079.9,541.61h8m-4,0V541.61m-4,0h8" style="vector-effect: none; stroke-width: 2px; stroke: rgb(27, 158, 119); stroke-opacity: 1;"/></g><g class="errorbar" style="opacity: 1;"><path class="yerror" d="M1143.57,541.61h8m-4,0V541.61m-4,0h8" style="vector-effect: none; stroke-width: 2px; stroke: rgb(27, 158, 119); stroke-opacity: 1;"/></g></g><g class="lines"><path class="js-line" d="M65.15,541.61L256.17,541.61L319.84,538.23L383.51,535.13L447.18,202.8L510.85,521.91L574.52,529.09L638.2,522.31L701.87,512.8L765.54,525.41L829.21,532.49L892.88,519.72L956.55,524.51L1020.23,526.08L1083.9,541.61L1147.57,541.61" style="vector-effect: none; fill: none; stroke: rgb(27, 158, 119); stroke-opacity: 1; stroke-width: 2px; opacity: 1;"/></g><g class="points"><path class="point" transform="translate(65.15,541.61)" d="M3,0A3,3 0 1,1 0,-3A3,3 0 0,1 3,0Z" style="opacity: 1; stroke-width: 0px; fill: rgb(27, 158, 119); fill-opacity: 1;"/><path class="point" transform="translate(128.82,541.61)" d="M3,0A3,3 0 1,1 0,-3A3,3 0 0,1 3,0Z" style="opacity: 1; stroke-width: 0px; fill: rgb(27, 158, 119); fill-opacity: 1;"/><path class="point" transform="translate(192.49,541.61)" d="M3,0A3,3 0 1,1 0,-3A3,3 0 0,1 3,0Z" style="opacity: 1; stroke-width: 0px; fill: rgb(27, 158, 119); fill-opacity: 1;"/><path class="point" transform="translate(256.17,541.61)" d="M3,0A3,3 0 1,1 0,-3A3,3 0 0,1 3,0Z" style="opacity: 1; stroke-width: 0px; fill: rgb(27, 158, 119); fill-opacity: 1;"/><path class="point" transform="translate(319.84,538.23)" d="M3,0A3,3 0 1,1 0,-3A3,3 0 0,1 3,0Z" style="opacity: 1; stroke-width: 0px; fill: rgb(27, 158, 119); fill-opacity: 1;"/><path class="point" transform="translate(383.51,535.13)" d="M3,0A3,3 0 1,1 0,-3A3,3 0 0,1 3,0Z" style="opacity: 1; stroke-width: 0px; fill: rgb(27, 158, 119); fill-opacity: 1;"/><path class="point" transform="translate(447.18,202.8)" d="M3,0A3,3 0 1,1 0,-3A3,3 0 0,1 3,0Z" style="opacity: 1; stroke-width: 0px; fill: rgb(27, 158, 119); fill-opacity: 1;"/><path class="point" transform="translate(510.85,521.91)" d="M3,0A3,3 0 1,1 0,-3A3,3 0 0,1 3,0Z" style="opacity: 1; stroke-width: 0px; fill: rgb(27, 158, 119); fill-opacity: 1;"/><path class="point" transform="translate(574.52,529.09)" d="M3,0A3,3 0 1,1 0,-3A3,3 0 0,1 3,0Z" style="opacity: 1; stroke-width: 0px; fill: rgb(27, 158, 119); fill-opacity: 1;"/><path class="point" transform="translate(638.2,522.31)" d="M3,0A3,3 0 1,1 0,-3A3,3 0 0,1 3,0Z" style="opacity: 1; stroke-width: 0px; fill: rgb(27, 158, 119); fill-opacity: 1;"/><path class="point" transform="translate(701.87,512.8)" d="M3,0A3,3 0 1,1 0,-3A3,3 0 0,1 3,0Z" style="opacity: 1; stroke-width: 0px; fill: rgb(27, 158, 119); fill-opacity: 1;"/><path class="point" transform="translate(765.54,525.41)" d="M3,0A3,3 0 1,1 0,-3A3,3 0 0,1 3,0Z" style="opacity: 1; stroke-width: 0px; fill: rgb(27, 158, 119); fill-opacity: 1;"/><path class="point" transform="translate(829.21,532.49)" d="M3,0A3,3 0 1,1 0,-3A3,3 0 0,1 3,0Z" style="opacity: 1; stroke-width: 0px; fill: rgb(27, 158, 119); fill-opacity: 1;"/><path class="point" transform="translate(892.88,519.72)" d="M3,0A3,3 0 1,1 0,-3A3,3 0 0,1 3,0Z" style="opacity: 1; stroke-width: 0px; fill: rgb(27, 158, 119); fill-opacity: 1;"/><path class="point" transform="translate(956.55,524.51)" d="M3,0A3,3 0 1,1 0,-3A3,3 0 0,1 3,0Z" style="opacity: 1; stroke-width: 0px; fill: rgb(27, 158, 119); fill-opacity: 1;"/><path class="point" transform="translate(1020.23,526.08)" d="M3,0A3,3 0 1,1 0,-3A3,3 0 0,1 3,0Z" style="opacity: 1; stroke-width: 0px; fill: rgb(27, 158, 119); fill-opacity: 1;"/><path class="point" transform="translate(1083.9,541.61)" d="M3,0A3,3 0 1,1 0,-3A3,3 0 0,1 3,0Z" style="opacity: 1; stroke-width: 0px; fill: rgb(27, 158, 119); fill-opacity: 1;"/><path class="point" transform="translate(1147.57,541.61)" d="M3,0A3,3 0 1,1 0,-3A3,3 0 0,1 3,0Z" style="opacity: 1; stroke-width: 0px; fill: rgb(27, 158, 119); fill-opacity: 1;"/></g><g class="text"/></g><g class="trace scatter traceaa6af8" style="stroke-miterlimit: 2; opacity: 1;"><g class="fills"/><g class="errorbars"><g class="errorbar" style="opacity: 1;"><path class="yerror" d="M64.97,541.61h8m-4,0V541.61m-4,0h8" style="vector-effect: none; stroke-width: 2px; stroke: rgb(217, 95, 2); stroke-opacity: 1;"/></g><g class="errorbar" style="opacity: 1;"><path class="yerror" d="M128.64,541.61h8m-4,0V541.61m-4,0h8" style="vector-effect: none; stroke-width: 2px; stroke: rgb(217, 95, 2); stroke-opacity: 1;"/></g><g class="errorbar" style="opacity: 1;"><path class="yerror" d="M192.31,541.61h8m-4,0V541.61m-4,0h8" style="vector-effect: none; stroke-width: 2px; stroke: rgb(217, 95, 2); stroke-opacity: 1;"/></g><g class="errorbar" style="opacity: 1;"><path class="yerror" d="M255.99,541.61h8m-4,0V541.61m-4,0h8" style="vector-effect: none; stroke-width: 2px; stroke: rgb(217, 95, 2); stroke-opacity: 1;"/></g><g class="errorbar" style="opacity: 1;"><path class="yerror" d="M319.66,537.85h8m-4,0V538.66m-4,0h8" style="vector-effect: none; stroke-width: 2px; stroke: rgb(217, 95, 2); stroke-opacity: 1;"/></g><g class="errorbar" style="opacity: 1;"><path class="yerror" d="M383.33,486.55h8m-4,0V540.69m-4,0h8" style="vector-effect: none; stroke-width: 2px; stroke: rgb(217, 95, 2); stroke-opacity: 1;"/></g><g class="errorbar" style="opacity: 1;"><path class="yerror" d="M447,31h8m-4,0V283.09m-4,0h8" style="vector-effect: none; stroke-width: 2px; stroke: rgb(217, 95, 2); stroke-opacity: 1;"/></g><g class="errorbar" style="opacity: 1;"><path class="yerror" d="M510.66999999999996,509.28h8m-4,0V536.88m-4,0h8" style="vector-effect: none; stroke-width: 2px; stroke: rgb(217, 95, 2); stroke-opacity: 1;"/></g><g class="errorbar" style="opacity: 1;"><path class="yerror" d="M574.34,503.51h8m-4,0V554.5m-4,0h8" style="vector-effect: none; stroke-width: 2px; stroke: rgb(217, 95, 2); stroke-opacity: 1;"/></g><g class="errorbar" style="opacity: 1;"><path class="yerror" d="M638.02,523.96h8m-4,0V524.37m-4,0h8" style="vector-effect: none; stroke-width: 2px; stroke: rgb(217, 95, 2); stroke-opacity: 1;"/></g><g class="errorbar" style="opacity: 1;"><path class="yerror" d="M701.69,471.3h8m-4,0V556.97m-4,0h8" style="vector-effect: none; stroke-width: 2px; stroke: rgb(217, 95, 2); stroke-opacity: 1;"/></g><g class="errorbar" style="opacity: 1;"><path class="yerror" d="M765.36,523.18h8m-4,0V527m-4,0h8" style="vector-effect: none; stroke-width: 2px; stroke: rgb(217, 95, 2); stroke-opacity: 1;"/></g><g class="errorbar" style="opacity: 1;"><path class="yerror" d="M829.03,519.09h8m-4,0V545.19m-4,0h8" style="vector-effect: none; stroke-width: 2px; stroke: rgb(217, 95, 2); stroke-opacity: 1;"/></g><g class="errorbar" style="opacity: 1;"><path class="yerror" d="M892.7,519.6h8m-4,0V519.84m-4,0h8" style="vector-effect: none; stroke-width: 2px; stroke: rgb(217, 95, 2); stroke-opacity: 1;"/></g><g class="errorbar" style="opacity: 1;"><path class="yerror" d="M956.37,524.03h8m-4,0V524.53m-4,0h8" style="vector-effect: none; stroke-width: 2px; stroke: rgb(217, 95, 2); stroke-opacity: 1;"/></g><g class="errorbar" style="opacity: 1;"><path class="yerror" d="M1020.05,525.3h8m-4,0V526.87m-4,0h8" style="vector-effect: none; stroke-width: 2px; stroke: rgb(217, 95, 2); stroke-opacity: 1;"/></g><g class="errorbar" style="opacity: 1;"><path class="yerror" d="M1083.72,541.61h8m-4,0V541.61m-4,0h8" style="vector-effect: none; stroke-width: 2px; stroke: rgb(217, 95, 2); stroke-opacity: 1;"/></g><g class="errorbar" style="opacity: 1;"><path class="yerror" d="M1147.39,541.61h8m-4,0V541.61m-4,0h8" style="vector-effect: none; stroke-width: 2px; stroke: rgb(217, 95, 2); stroke-opacity: 1;"/></g></g><g class="lines"><path class="js-line" d="M68.97,541.61L259.99,541.61L323.66,538.26L387.33,513.62L451,157.04L514.67,523.08L578.34,529.01L642.02,524.17L705.69,514.14L769.36,525.09L833.03,532.14L896.7,519.72L960.37,524.28L1024.05,526.08L1087.72,541.61L1151.39,541.61" style="vector-effect: none; fill: none; stroke: rgb(217, 95, 2); stroke-opacity: 1; stroke-width: 2px; opacity: 1;"/></g><g class="points"><path class="point" transform="translate(68.97,541.61)" d="M3,0A3,3 0 1,1 0,-3A3,3 0 0,1 3,0Z" style="opacity: 1; stroke-width: 0px; fill: rgb(217, 95, 2); fill-opacity: 1;"/><path class="point" transform="translate(132.64,541.61)" d="M3,0A3,3 0 1,1 0,-3A3,3 0 0,1 3,0Z" style="opacity: 1; stroke-width: 0px; fill: rgb(217, 95, 2); fill-opacity: 1;"/><path class="point" transform="translate(196.31,541.61)" d="M3,0A3,3 0 1,1 0,-3A3,3 0 0,1 3,0Z" style="opacity: 1; stroke-width: 0px; fill: rgb(217, 95, 2); fill-opacity: 1;"/><path class="point" transform="translate(259.99,541.61)" d="M3,0A3,3 0 1,1 0,-3A3,3 0 0,1 3,0Z" style="opacity: 1; stroke-width: 0px; fill: rgb(217, 95, 2); fill-opacity: 1;"/><path class="point" transform="translate(323.66,538.26)" d="M3,0A3,3 0 1,1 0,-3A3,3 0 0,1 3,0Z" style="opacity: 1; stroke-width: 0px; fill: rgb(217, 95, 2); fill-opacity: 1;"/><path class="point" transform="translate(387.33,513.62)" d="M3,0A3,3 0 1,1 0,-3A3,3 0 0,1 3,0Z" style="opacity: 1; stroke-width: 0px; fill: rgb(217, 95, 2); fill-opacity: 1;"/><path class="point" transform="translate(451,157.04)" d="M3,0A3,3 0 1,1 0,-3A3,3 0 0,1 3,0Z" style="opacity: 1; stroke-width: 0px; fill: rgb(217, 95, 2); fill-opacity: 1;"/><path class="point" transform="translate(514.67,523.08)" d="M3,0A3,3 0 1,1 0,-3A3,3 0 0,1 3,0Z" style="opacity: 1; stroke-width: 0px; fill: rgb(217, 95, 2); fill-opacity: 1;"/><path class="point" transform="translate(578.34,529.01)" d="M3,0A3,3 0 1,1 0,-3A3,3 0 0,1 3,0Z" style="opacity: 1; stroke-width: 0px; fill: rgb(217, 95, 2); fill-opacity: 1;"/><path class="point" transform="translate(642.02,524.17)" d="M3,0A3,3 0 1,1 0,-3A3,3 0 0,1 3,0Z" style="opacity: 1; stroke-width: 0px; fill: rgb(217, 95, 2); fill-opacity: 1;"/><path class="point" transform="translate(705.69,514.14)" d="M3,0A3,3 0 1,1 0,-3A3,3 0 0,1 3,0Z" style="opacity: 1; stroke-width: 0px; fill: rgb(217, 95, 2); fill-opacity: 1;"/><path class="point" transform="translate(769.36,525.09)" d="M3,0A3,3 0 1,1 0,-3A3,3 0 0,1 3,0Z" style="opacity: 1; stroke-width: 0px; fill: rgb(217, 95, 2); fill-opacity: 1;"/><path class="point" transform="translate(833.03,532.14)" d="M3,0A3,3 0 1,1 0,-3A3,3 0 0,1 3,0Z" style="opacity: 1; stroke-width: 0px; fill: rgb(217, 95, 2); fill-opacity: 1;"/><path class="point" transform="translate(896.7,519.72)" d="M3,0A3,3 0 1,1 0,-3A3,3 0 0,1 3,0Z" style="opacity: 1; stroke-width: 0px; fill: rgb(217, 95, 2); fill-opacity: 1;"/><path class="point" transform="translate(960.37,524.28)" d="M3,0A3,3 0 1,1 0,-3A3,3 0 0,1 3,0Z" style="opacity: 1; stroke-width: 0px; fill: rgb(217, 95, 2); fill-opacity: 1;"/><path class="point" transform="translate(1024.05,526.08)" d="M3,0A3,3 0 1,1 0,-3A3,3 0 0,1 3,0Z" style="opacity: 1; stroke-width: 0px; fill: rgb(217, 95, 2); fill-opacity: 1;"/><path class="point" transform="translate(1087.72,541.61)" d="M3,0A3,3 0 1,1 0,-3A3,3 0 0,1 3,0Z" style="opacity: 1; stroke-width: 0px; fill: rgb(217, 95, 2); fill-opacity: 1;"/><path class="point" transform="translate(1151.39,541.61)" d="M3,0A3,3 0 1,1 0,-3A3,3 0 0,1 3,0Z" style="opacity: 1; stroke-width: 0px; fill: rgb(217, 95, 2); fill-opacity: 1;"/></g><g class="text"/></g><g class="trace scatter trace680a72" style="stroke-miterlimit: 2; opacity: 1;"><g class="fills"/><g class="errorbars"><g class="errorbar" style="opacity: 1;"><path class="yerror" d="M68.79,541.61h8m-4,0V541.61m-4,0h8" style="vector-effect: none; stroke-width: 2px; stroke: rgb(117, 112, 179); stroke-opacity: 1;"/></g><g class="errorbar" style="opacity: 1;"><path class="yerror" d="M132.46,541.61h8m-4,0V541.61m-4,0h8" style="vector-effect: none; stroke-width: 2px; stroke: rgb(117, 112, 179); stroke-opacity: 1;"/></g><g class="errorbar" style="opacity: 1;"><path class="yerror" d="M196.13,541.61h8m-4,0V541.61m-4,0h8" style="vector-effect: none; stroke-width: 2px; stroke: rgb(117, 112, 179); stroke-opacity: 1;"/></g><g class="errorbar" style="opacity: 1;"><path class="yerror" d="M259.81,541.61h8m-4,0V541.61m-4,0h8" style="vector-effect: none; stroke-width: 2px; stroke: rgb(117, 112, 179); stroke-opacity: 1;"/></g><g class="errorbar" style="opacity: 1;"><path class="yerror" d="M323.48,522.79h8m-4,0V549.86m-4,0h8" style="vector-effect: none; stroke-width: 2px; stroke: rgb(117, 112, 179); stroke-opacity: 1;"/></g><g class="errorbar" style="opacity: 1;"><path class="yerror" d="M387.15,524.64h8m-4,0V546.17m-4,0h8" style="vector-effect: none; stroke-width: 2px; stroke: rgb(117, 112, 179); stroke-opacity: 1;"/></g><g class="errorbar" style="opacity: 1;"><path class="yerror" d="M450.82,105h8m-4,0V481.68m-4,0h8" style="vector-effect: none; stroke-width: 2px; stroke: rgb(117, 112, 179); stroke-opacity: 1;"/></g><g class="errorbar" style="opacity: 1;"><path class="yerror" d="M514.49,513.38h8m-4,0V544.59m-4,0h8" style="vector-effect: none; stroke-width: 2px; stroke: rgb(117, 112, 179); stroke-opacity: 1;"/></g><g class="errorbar" style="opacity: 1;"><path class="yerror" d="M578.16,349.16h8m-4,0V581.24m-4,0h8" style="vector-effect: none; stroke-width: 2px; stroke: rgb(117, 112, 179); stroke-opacity: 1;"/></g><g class="errorbar" style="opacity: 1;"><path class="yerror" d="M641.84,514.38h8m-4,0V557.46m-4,0h8" style="vector-effect: none; stroke-width: 2px; stroke: rgb(117, 112, 179); stroke-opacity: 1;"/></g><g class="errorbar" style="opacity: 1;"><path class="yerror" d="M705.51,506.15h8m-4,0V559.79m-4,0h8" style="vector-effect: none; stroke-width: 2px; stroke: rgb(117, 112, 179); stroke-opacity: 1;"/></g><g class="errorbar" style="opacity: 1;"><path class="yerror" d="M769.18,458.17h8m-4,0V565.09m-4,0h8" style="vector-effect: none; stroke-width: 2px; stroke: rgb(117, 112, 179); stroke-opacity: 1;"/></g><g class="errorbar" style="opacity: 1;"><path class="yerror" d="M832.85,472.89h8m-4,0V544.37m-4,0h8" style="vector-effect: none; stroke-width: 2px; stroke: rgb(117, 112, 179); stroke-opacity: 1;"/></g><g class="errorbar" style="opacity: 1;"><path class="yerror" d="M896.52,530.91h8m-4,0V537.54m-4,0h8" style="vector-effect: none; stroke-width: 2px; stroke: rgb(117, 112, 179); stroke-opacity: 1;"/></g><g class="errorbar" style="opacity: 1;"><path class="yerror" d="M960.19,539.44h8m-4,0V541.65m-4,0h8" style="vector-effect: none; stroke-width: 2px; stroke: rgb(117, 112, 179); stroke-opacity: 1;"/></g><g class="errorbar" style="opacity: 1;"><path class="yerror" d="M1023.8699999999999,471.15h8m-4,0V589m-4,0h8" style="vector-effect: none; stroke-width: 2px; stroke: rgb(117, 112, 179); stroke-opacity: 1;"/></g><g class="errorbar" style="opacity: 1;"><path class="yerror" d="M1087.54,541.61h8m-4,0V541.61m-4,0h8" style="vector-effect: none; stroke-width: 2px; stroke: rgb(117, 112, 179); stroke-opacity: 1;"/></g><g class="errorbar" style="opacity: 1;"><path class="yerror" d="M1151.21,541.61h8m-4,0V541.61m-4,0h8" style="vector-effect: none; stroke-width: 2px; stroke: rgb(117, 112, 179); stroke-opacity: 1;"/></g></g><g class="lines"><path class="js-line" d="M72.79,541.61L263.81,541.61L327.48,536.32L391.15,535.4L454.82,293.34L518.49,528.98L582.16,465.2L645.84,535.92L709.51,532.97L773.18,511.63L836.85,508.63L900.52,534.23L964.19,540.54L1027.87,530.08L1091.54,541.61L1155.21,541.61" style="vector-effect: none; fill: none; stroke: rgb(117, 112, 179); stroke-opacity: 1; stroke-width: 2px; opacity: 1;"/></g><g class="points"><path class="point" transform="translate(72.79,541.61)" d="M3,0A3,3 0 1,1 0,-3A3,3 0 0,1 3,0Z" style="opacity: 1; stroke-width: 0px; fill: rgb(117, 112, 179); fill-opacity: 1;"/><path class="point" transform="translate(136.46,541.61)" d="M3,0A3,3 0 1,1 0,-3A3,3 0 0,1 3,0Z" style="opacity: 1; stroke-width: 0px; fill: rgb(117, 112, 179); fill-opacity: 1;"/><path class="point" transform="translate(200.13,541.61)" d="M3,0A3,3 0 1,1 0,-3A3,3 0 0,1 3,0Z" style="opacity: 1; stroke-width: 0px; fill: rgb(117, 112, 179); fill-opacity: 1;"/><path class="point" transform="translate(263.81,541.61)" d="M3,0A3,3 0 1,1 0,-3A3,3 0 0,1 3,0Z" style="opacity: 1; stroke-width: 0px; fill: rgb(117, 112, 179); fill-opacity: 1;"/><path class="point" transform="translate(327.48,536.32)" d="M3,0A3,3 0 1,1 0,-3A3,3 0 0,1 3,0Z" style="opacity: 1; stroke-width: 0px; fill: rgb(117, 112, 179); fill-opacity: 1;"/><path class="point" transform="translate(391.15,535.4)" d="M3,0A3,3 0 1,1 0,-3A3,3 0 0,1 3,0Z" style="opacity: 1; stroke-width: 0px; fill: rgb(117, 112, 179); fill-opacity: 1;"/><path class="point" transform="translate(454.82,293.34)" d="M3,0A3,3 0 1,1 0,-3A3,3 0 0,1 3,0Z" style="opacity: 1; stroke-width: 0px; fill: rgb(117, 112, 179); fill-opacity: 1;"/><path class="point" transform="translate(518.49,528.98)" d="M3,0A3,3 0 1,1 0,-3A3,3 0 0,1 3,0Z" style="opacity: 1; stroke-width: 0px; fill: rgb(117, 112, 179); fill-opacity: 1;"/><path class="point" transform="translate(582.16,465.2)" d="M3,0A3,3 0 1,1 0,-3A3,3 0 0,1 3,0Z" style="opacity: 1; stroke-width: 0px; fill: rgb(117, 112, 179); fill-opacity: 1;"/><path class="point" transform="translate(645.84,535.92)" d="M3,0A3,3 0 1,1 0,-3A3,3 0 0,1 3,0Z" style="opacity: 1; stroke-width: 0px; fill: rgb(117, 112, 179); fill-opacity: 1;"/><path class="point" transform="translate(709.51,532.97)" d="M3,0A3,3 0 1,1 0,-3A3,3 0 0,1 3,0Z" style="opacity: 1; stroke-width: 0px; fill: rgb(117, 112, 179); fill-opacity: 1;"/><path class="point" transform="translate(773.18,511.63)" d="M3,0A3,3 0 1,1 0,-3A3,3 0 0,1 3,0Z" style="opacity: 1; stroke-width: 0px; fill: rgb(117, 112, 179); fill-opacity: 1;"/><path class="point" transform="translate(836.85,508.63)" d="M3,0A3,3 0 1,1 0,-3A3,3 0 0,1 3,0Z" style="opacity: 1; stroke-width: 0px; fill: rgb(117, 112, 179); fill-opacity: 1;"/><path class="point" transform="translate(900.52,534.23)" d="M3,0A3,3 0 1,1 0,-3A3,3 0 0,1 3,0Z" style="opacity: 1; stroke-width: 0px; fill: rgb(117, 112, 179); fill-opacity: 1;"/><path class="point" transform="translate(964.19,540.54)" d="M3,0A3,3 0 1,1 0,-3A3,3 0 0,1 3,0Z" style="opacity: 1; stroke-width: 0px; fill: rgb(117, 112, 179); fill-opacity: 1;"/><path class="point" transform="translate(1027.87,530.08)" d="M3,0A3,3 0 1,1 0,-3A3,3 0 0,1 3,0Z" style="opacity: 1; stroke-width: 0px; fill: rgb(117, 112, 179); fill-opacity: 1;"/><path class="point" transform="translate(1091.54,541.61)" d="M3,0A3,3 0 1,1 0,-3A3,3 0 0,1 3,0Z" style="opacity: 1; stroke-width: 0px; fill: rgb(117, 112, 179); fill-opacity: 1;"/><path class="point" transform="translate(1155.21,541.61)" d="M3,0A3,3 0 1,1 0,-3A3,3 0 0,1 3,0Z" style="opacity: 1; stroke-width: 0px; fill: rgb(117, 112, 179); fill-opacity: 1;"/></g><g class="text"/></g><g class="trace scatter traced65534" style="stroke-miterlimit: 2; opacity: 1;"><g class="fills"/><g class="errorbars"><g class="errorbar" style="opacity: 1;"><path class="yerror" d="M72.61,541.61h8m-4,0V541.61m-4,0h8" style="vector-effect: none; stroke-width: 2px; stroke: rgb(231, 41, 138); stroke-opacity: 1;"/></g><g class="errorbar" style="opacity: 1;"><path class="yerror" d="M136.28,541.61h8m-4,0V541.61m-4,0h8" style="vector-effect: none; stroke-width: 2px; stroke: rgb(231, 41, 138); stroke-opacity: 1;"/></g><g class="errorbar" style="opacity: 1;"><path class="yerror" d="M199.95,541.61h8m-4,0V541.61m-4,0h8" style="vector-effect: none; stroke-width: 2px; stroke: rgb(231, 41, 138); stroke-opacity: 1;"/></g><g class="errorbar" style="opacity: 1;"><path class="yerror" d="M263.63,541.61h8m-4,0V541.61m-4,0h8" style="vector-effect: none; stroke-width: 2px; stroke: rgb(231, 41, 138); stroke-opacity: 1;"/></g><g class="errorbar" style="opacity: 1;"><path class="yerror" d="M327.3,233.7h8m-4,0V482.44m-4,0h8" style="vector-effect: none; stroke-width: 2px; stroke: rgb(231, 41, 138); stroke-opacity: 1;"/></g><g class="errorbar" style="opacity: 1;"><path class="yerror" d="M390.97,214.89h8m-4,0V485.1m-4,0h8" style="vector-effect: none; stroke-width: 2px; stroke: rgb(231, 41, 138); stroke-opacity: 1;"/></g><g class="errorbar" style="opacity: 1;"><path class="yerror" d="M454.64,175.02h8m-4,0V448.7m-4,0h8" style="vector-effect: none; stroke-width: 2px; stroke: rgb(231, 41, 138); stroke-opacity: 1;"/></g><g class="errorbar" style="opacity: 1;"><path class="yerror" d="M518.31,282.79h8m-4,0V490.42m-4,0h8" style="vector-effect: none; stroke-width: 2px; stroke: rgb(231, 41, 138); stroke-opacity: 1;"/></g><g class="errorbar" style="opacity: 1;"><path class="yerror" d="M581.98,335.85h8m-4,0V505.5m-4,0h8" style="vector-effect: none; stroke-width: 2px; stroke: rgb(231, 41, 138); stroke-opacity: 1;"/></g><g class="errorbar" style="opacity: 1;"><path class="yerror" d="M645.66,364.52h8m-4,0V498.74m-4,0h8" style="vector-effect: none; stroke-width: 2px; stroke: rgb(231, 41, 138); stroke-opacity: 1;"/></g><g class="errorbar" style="opacity: 1;"><path class="yerror" d="M709.33,375.48h8m-4,0V499.71m-4,0h8" style="vector-effect: none; stroke-width: 2px; stroke: rgb(231, 41, 138); stroke-opacity: 1;"/></g><g class="errorbar" style="opacity: 1;"><path class="yerror" d="M773,355.03h8m-4,0V479.63m-4,0h8" style="vector-effect: none; stroke-width: 2px; stroke: rgb(231, 41, 138); stroke-opacity: 1;"/></g><g class="errorbar" style="opacity: 1;"><path class="yerror" d="M836.67,350.02h8m-4,0V498.01m-4,0h8" style="vector-effect: none; stroke-width: 2px; stroke: rgb(231, 41, 138); stroke-opacity: 1;"/></g><g class="errorbar" style="opacity: 1;"><path class="yerror" d="M900.34,317.67h8m-4,0V501.83m-4,0h8" style="vector-effect: none; stroke-width: 2px; stroke: rgb(231, 41, 138); stroke-opacity: 1;"/></g><g class="errorbar" style="opacity: 1;"><path class="yerror" d="M964.01,298.46h8m-4,0V503.33m-4,0h8" style="vector-effect: none; stroke-width: 2px; stroke: rgb(231, 41, 138); stroke-opacity: 1;"/></g><g class="errorbar" style="opacity: 1;"><path class="yerror" d="M1027.69,326.53h8m-4,0V516.57m-4,0h8" style="vector-effect: none; stroke-width: 2px; stroke: rgb(231, 41, 138); stroke-opacity: 1;"/></g><g class="errorbar" style="opacity: 1;"><path class="yerror" d="M1091.36,541.61h8m-4,0V541.61m-4,0h8" style="vector-effect: none; stroke-width: 2px; stroke: rgb(231, 41, 138); stroke-opacity: 1;"/></g><g class="errorbar" style="opacity: 1;"><path class="yerror" d="M1155.03,541.61h8m-4,0V541.61m-4,0h8" style="vector-effect: none; stroke-width: 2px; stroke: rgb(231, 41, 138); stroke-opacity: 1;"/></g></g><g class="lines"><path class="js-line" d="M76.61,541.61L267.63,541.61L331.3,358.07L394.97,349.99L458.64,311.86L522.31,386.6L585.98,420.67L649.66,431.63L713.33,437.6L777,417.33L840.67,424.02L904.34,409.75L968.01,400.89L1031.69,421.55L1095.36,541.61L1159.03,541.61" style="vector-effect: none; fill: none; stroke: rgb(231, 41, 138); stroke-opacity: 1; stroke-width: 2px; opacity: 1;"/></g><g class="points"><path class="point" transform="translate(76.61,541.61)" d="M3,0A3,3 0 1,1 0,-3A3,3 0 0,1 3,0Z" style="opacity: 1; stroke-width: 0px; fill: rgb(231, 41, 138); fill-opacity: 1;"/><path class="point" transform="translate(140.28,541.61)" d="M3,0A3,3 0 1,1 0,-3A3,3 0 0,1 3,0Z" style="opacity: 1; stroke-width: 0px; fill: rgb(231, 41, 138); fill-opacity: 1;"/><path class="point" transform="translate(203.95,541.61)" d="M3,0A3,3 0 1,1 0,-3A3,3 0 0,1 3,0Z" style="opacity: 1; stroke-width: 0px; fill: rgb(231, 41, 138); fill-opacity: 1;"/><path class="point" transform="translate(267.63,541.61)" d="M3,0A3,3 0 1,1 0,-3A3,3 0 0,1 3,0Z" style="opacity: 1; stroke-width: 0px; fill: rgb(231, 41, 138); fill-opacity: 1;"/><path class="point" transform="translate(331.3,358.07)" d="M3,0A3,3 0 1,1 0,-3A3,3 0 0,1 3,0Z" style="opacity: 1; stroke-width: 0px; fill: rgb(231, 41, 138); fill-opacity: 1;"/><path class="point" transform="translate(394.97,349.99)" d="M3,0A3,3 0 1,1 0,-3A3,3 0 0,1 3,0Z" style="opacity: 1; stroke-width: 0px; fill: rgb(231, 41, 138); fill-opacity: 1;"/><path class="point" transform="translate(458.64,311.86)" d="M3,0A3,3 0 1,1 0,-3A3,3 0 0,1 3,0Z" style="opacity: 1; stroke-width: 0px; fill: rgb(231, 41, 138); fill-opacity: 1;"/><path class="point" transform="translate(522.31,386.6)" d="M3,0A3,3 0 1,1 0,-3A3,3 0 0,1 3,0Z" style="opacity: 1; stroke-width: 0px; fill: rgb(231, 41, 138); fill-opacity: 1;"/><path class="point" transform="translate(585.98,420.67)" d="M3,0A3,3 0 1,1 0,-3A3,3 0 0,1 3,0Z" style="opacity: 1; stroke-width: 0px; fill: rgb(231, 41, 138); fill-opacity: 1;"/><path class="point" transform="translate(649.66,431.63)" d="M3,0A3,3 0 1,1 0,-3A3,3 0 0,1 3,0Z" style="opacity: 1; stroke-width: 0px; fill: rgb(231, 41, 138); fill-opacity: 1;"/><path class="point" transform="translate(713.33,437.6)" d="M3,0A3,3 0 1,1 0,-3A3,3 0 0,1 3,0Z" style="opacity: 1; stroke-width: 0px; fill: rgb(231, 41, 138); fill-opacity: 1;"/><path class="point" transform="translate(777,417.33)" d="M3,0A3,3 0 1,1 0,-3A3,3 0 0,1 3,0Z" style="opacity: 1; stroke-width: 0px; fill: rgb(231, 41, 138); fill-opacity: 1;"/><path class="point" transform="translate(840.67,424.02)" d="M3,0A3,3 0 1,1 0,-3A3,3 0 0,1 3,0Z" style="opacity: 1; stroke-width: 0px; fill: rgb(231, 41, 138); fill-opacity: 1;"/><path class="point" transform="translate(904.34,409.75)" d="M3,0A3,3 0 1,1 0,-3A3,3 0 0,1 3,0Z" style="opacity: 1; stroke-width: 0px; fill: rgb(231, 41, 138); fill-opacity: 1;"/><path class="point" transform="translate(968.01,400.89)" d="M3,0A3,3 0 1,1 0,-3A3,3 0 0,1 3,0Z" style="opacity: 1; stroke-width: 0px; fill: rgb(231, 41, 138); fill-opacity: 1;"/><path class="point" transform="translate(1031.69,421.55)" d="M3,0A3,3 0 1,1 0,-3A3,3 0 0,1 3,0Z" style="opacity: 1; stroke-width: 0px; fill: rgb(231, 41, 138); fill-opacity: 1;"/><path class="point" transform="translate(1095.36,541.61)" d="M3,0A3,3 0 1,1 0,-3A3,3 0 0,1 3,0Z" style="opacity: 1; stroke-width: 0px; fill: rgb(231, 41, 138); fill-opacity: 1;"/><path class="point" transform="translate(1159.03,541.61)" d="M3,0A3,3 0 1,1 0,-3A3,3 0 0,1 3,0Z" style="opacity: 1; stroke-width: 0px; fill: rgb(231, 41, 138); fill-opacity: 1;"/></g><g class="text"/></g><g class="trace scatter trace84b8c4" style="stroke-miterlimit: 2; opacity: 1;"><g class="fills"/><g class="errorbars"><g class="errorbar" style="opacity: 1;"/><g class="errorbar" style="opacity: 1;"/><g class="errorbar" style="opacity: 1;"/><g class="errorbar" style="opacity: 1;"/><g class="errorbar" style="opacity: 1;"/><g class="errorbar" style="opacity: 1;"/><g class="errorbar" style="opacity: 1;"/><g class="errorbar" style="opacity: 1;"/><g class="errorbar" style="opacity: 1;"/><g class="errorbar" style="opacity: 1;"/><g class="errorbar" style="opacity: 1;"/><g class="errorbar" style="opacity: 1;"/><g class="errorbar" style="opacity: 1;"/><g class="errorbar" style="opacity: 1;"/><g class="errorbar" style="opacity: 1;"/><g class="errorbar" style="opacity: 1;"/><g class="errorbar" style="opacity: 1;"/><g class="errorbar" style="opacity: 1;"/></g><g class="lines"><path class="js-line" d="M80.43,541.61L1162.85,541.61" style="vector-effect: none; fill: none; stroke: rgb(102, 166, 30); stroke-opacity: 1; stroke-width: 2px; opacity: 1;"/></g><g class="points"><path class="point" transform="translate(80.43,541.61)" d="M3,0A3,3 0 1,1 0,-3A3,3 0 0,1 3,0Z" style="opacity: 1; stroke-width: 0px; fill: rgb(102, 166, 30); fill-opacity: 1;"/><path class="point" transform="translate(144.1,541.61)" d="M3,0A3,3 0 1,1 0,-3A3,3 0 0,1 3,0Z" style="opacity: 1; stroke-width: 0px; fill: rgb(102, 166, 30); fill-opacity: 1;"/><path class="point" transform="translate(207.77,541.61)" d="M3,0A3,3 0 1,1 0,-3A3,3 0 0,1 3,0Z" style="opacity: 1; stroke-width: 0px; fill: rgb(102, 166, 30); fill-opacity: 1;"/><path class="point" transform="translate(271.45,541.61)" d="M3,0A3,3 0 1,1 0,-3A3,3 0 0,1 3,0Z" style="opacity: 1; stroke-width: 0px; fill: rgb(102, 166, 30); fill-opacity: 1;"/><path class="point" transform="translate(335.12,541.61)" d="M3,0A3,3 0 1,1 0,-3A3,3 0 0,1 3,0Z" style="opacity: 1; stroke-width: 0px; fill: rgb(102, 166, 30); fill-opacity: 1;"/><path class="point" transform="translate(398.79,541.61)" d="M3,0A3,3 0 1,1 0,-3A3,3 0 0,1 3,0Z" style="opacity: 1; stroke-width: 0px; fill: rgb(102, 166, 30); fill-opacity: 1;"/><path class="point" transform="translate(462.46,541.61)" d="M3,0A3,3 0 1,1 0,-3A3,3 0 0,1 3,0Z" style="opacity: 1; stroke-width: 0px; fill: rgb(102, 166, 30); fill-opacity: 1;"/><path class="point" transform="translate(526.13,541.61)" d="M3,0A3,3 0 1,1 0,-3A3,3 0 0,1 3,0Z" style="opacity: 1; stroke-width: 0px; fill: rgb(102, 166, 30); fill-opacity: 1;"/><path class="point" transform="translate(589.8,541.61)" d="M3,0A3,3 0 1,1 0,-3A3,3 0 0,1 3,0Z" style="opacity: 1; stroke-width: 0px; fill: rgb(102, 166, 30); fill-opacity: 1;"/><path class="point" transform="translate(653.48,541.61)" d="M3,0A3,3 0 1,1 0,-3A3,3 0 0,1 3,0Z" style="opacity: 1; stroke-width: 0px; fill: rgb(102, 166, 30); fill-opacity: 1;"/><path class="point" transform="translate(717.15,541.61)" d="M3,0A3,3 0 1,1 0,-3A3,3 0 0,1 3,0Z" style="opacity: 1; stroke-width: 0px; fill: rgb(102, 166, 30); fill-opacity: 1;"/><path class="point" transform="translate(780.82,541.61)" d="M3,0A3,3 0 1,1 0,-3A3,3 0 0,1 3,0Z" style="opacity: 1; stroke-width: 0px; fill: rgb(102, 166, 30); fill-opacity: 1;"/><path class="point" transform="translate(844.49,541.61)" d="M3,0A3,3 0 1,1 0,-3A3,3 0 0,1 3,0Z" style="opacity: 1; stroke-width: 0px; fill: rgb(102, 166, 30); fill-opacity: 1;"/><path class="point" transform="translate(908.16,541.61)" d="M3,0A3,3 0 1,1 0,-3A3,3 0 0,1 3,0Z" style="opacity: 1; stroke-width: 0px; fill: rgb(102, 166, 30); fill-opacity: 1;"/><path class="point" transform="translate(971.83,541.61)" d="M3,0A3,3 0 1,1 0,-3A3,3 0 0,1 3,0Z" style="opacity: 1; stroke-width: 0px; fill: rgb(102, 166, 30); fill-opacity: 1;"/><path class="point" transform="translate(1035.51,541.61)" d="M3,0A3,3 0 1,1 0,-3A3,3 0 0,1 3,0Z" style="opacity: 1; stroke-width: 0px; fill: rgb(102, 166, 30); fill-opacity: 1;"/><path class="point" transform="translate(1099.18,541.61)" d="M3,0A3,3 0 1,1 0,-3A3,3 0 0,1 3,0Z" style="opacity: 1; stroke-width: 0px; fill: rgb(102, 166, 30); fill-opacity: 1;"/><path class="point" transform="translate(1162.85,541.61)" d="M3,0A3,3 0 1,1 0,-3A3,3 0 0,1 3,0Z" style="opacity: 1; stroke-width: 0px; fill: rgb(102, 166, 30); fill-opacity: 1;"/></g><g class="text"/></g></g></g></g><path class="xlines-above crisp" d="M0,0" style="fill: none;"/><path class="ylines-above crisp" d="M0,0" style="fill: none;"/><g class="overlines-above"/><g class="xaxislayer-above"><g class="xtick"><text text-anchor="middle" x="0" y="743" transform="translate(174.79000000000002,0)" style="font-family: Verdana; font-size: 22px; fill: rgb(0, 0, 0); fill-opacity: 1; white-space: pre; opacity: 1;">S_</text></g><g class="xtick"><text text-anchor="middle" x="0" y="743" style="font-family: Verdana; font-size: 22px; fill: rgb(0, 0, 0); fill-opacity: 1; white-space: pre; opacity: 1;" transform="translate(238.46,0)">g_</text></g><g class="xtick"><text text-anchor="middle" x="0" y="743" style="font-family: Verdana; font-size: 22px; fill: rgb(0, 0, 0); fill-opacity: 1; white-space: pre; opacity: 1;" transform="translate(302.13,0)">G_</text></g><g class="xtick"><text text-anchor="middle" x="0" y="743" style="font-family: Verdana; font-size: 22px; fill: rgb(0, 0, 0); fill-opacity: 1; white-space: pre; opacity: 1;" transform="translate(365.81,0)">M_</text></g><g class="xtick"><text text-anchor="middle" x="0" y="743" style="font-family: Verdana; font-size: 22px; fill: rgb(0, 0, 0); fill-opacity: 1; white-space: pre; opacity: 1;" transform="translate(429.48,0)">P_</text></g><g class="xtick"><text text-anchor="middle" x="0" y="743" style="font-family: Verdana; font-size: 22px; fill: rgb(0, 0, 0); fill-opacity: 1; white-space: pre; opacity: 1;" transform="translate(493.15,0)">n_</text></g><g class="xtick"><text text-anchor="middle" x="0" y="743" style="font-family: Verdana; font-size: 22px; fill: rgb(0, 0, 0); fill-opacity: 1; white-space: pre; opacity: 1;" transform="translate(556.8199999999999,0)">S</text></g><g class="xtick"><text text-anchor="middle" x="0" y="743" style="font-family: Verdana; font-size: 22px; fill: rgb(0, 0, 0); fill-opacity: 1; white-space: pre; opacity: 1;" transform="translate(620.49,0)">g</text></g><g class="xtick"><text text-anchor="middle" x="0" y="743" style="font-family: Verdana; font-size: 22px; fill: rgb(0, 0, 0); fill-opacity: 1; white-space: pre; opacity: 1;" transform="translate(684.16,0)">G</text></g><g class="xtick"><text text-anchor="middle" x="0" y="743" style="font-family: Verdana; font-size: 22px; fill: rgb(0, 0, 0); fill-opacity: 1; white-space: pre; opacity: 1;" transform="translate(747.84,0)">M</text></g><g class="xtick"><text text-anchor="middle" x="0" y="743" style="font-family: Verdana; font-size: 22px; fill: rgb(0, 0, 0); fill-opacity: 1; white-space: pre; opacity: 1;" transform="translate(811.51,0)">P</text></g><g class="xtick"><text text-anchor="middle" x="0" y="743" style="font-family: Verdana; font-size: 22px; fill: rgb(0, 0, 0); fill-opacity: 1; white-space: pre; opacity: 1;" transform="translate(875.18,0)">n</text></g><g class="xtick"><text text-anchor="middle" x="0" y="743" style="font-family: Verdana; font-size: 22px; fill: rgb(0, 0, 0); fill-opacity: 1; white-space: pre; opacity: 1;" transform="translate(938.85,0)">S^</text></g><g class="xtick"><text text-anchor="middle" x="0" y="743" style="font-family: Verdana; font-size: 22px; fill: rgb(0, 0, 0); fill-opacity: 1; white-space: pre; opacity: 1;" transform="translate(1002.52,0)">g^</text></g><g class="xtick"><text text-anchor="middle" x="0" y="743" style="font-family: Verdana; font-size: 22px; fill: rgb(0, 0, 0); fill-opacity: 1; white-space: pre; opacity: 1;" transform="translate(1066.19,0)">G^</text></g><g class="xtick"><text text-anchor="middle" x="0" y="743" style="font-family: Verdana; font-size: 22px; fill: rgb(0, 0, 0); fill-opacity: 1; white-space: pre; opacity: 1;" transform="translate(1129.87,0)">M^</text></g><g class="xtick"><text text-anchor="middle" x="0" y="743" style="font-family: Verdana; font-size: 22px; fill: rgb(0, 0, 0); fill-opacity: 1; white-space: pre; opacity: 1;" transform="translate(1193.54,0)">P^</text></g><g class="xtick"><text text-anchor="middle" x="0" y="743" style="font-family: Verdana; font-size: 22px; fill: rgb(0, 0, 0); fill-opacity: 1; white-space: pre; opacity: 1;" transform="translate(1257.21,0)">n^</text></g></g><g class="yaxislayer-above"><g class="ytick"><text text-anchor="end" x="101" y="7.699999999999999" transform="translate(0,641.61)" style="font-family: Verdana; font-size: 22px; fill: rgb(0, 0, 0); fill-opacity: 1; white-space: pre; opacity: 1;">0</text></g><g class="ytick"><text text-anchor="end" x="101" y="7.699999999999999" style="font-family: Verdana; font-size: 22px; fill: rgb(0, 0, 0); fill-opacity: 1; white-space: pre; opacity: 1;" transform="translate(0,530.02)">500</text></g><g class="ytick"><text text-anchor="end" x="101" y="7.699999999999999" style="font-family: Verdana; font-size: 22px; fill: rgb(0, 0, 0); fill-opacity: 1; white-space: pre; opacity: 1;" transform="translate(0,418.43)">1000</text></g><g class="ytick"><text text-anchor="end" x="101" y="7.699999999999999" style="font-family: Verdana; font-size: 22px; fill: rgb(0, 0, 0); fill-opacity: 1; white-space: pre; opacity: 1;" transform="translate(0,306.84000000000003)">1500</text></g><g class="ytick"><text text-anchor="end" x="101" y="7.699999999999999" style="font-family: Verdana; font-size: 22px; fill: rgb(0, 0, 0); fill-opacity: 1; white-space: pre; opacity: 1;" transform="translate(0,195.25)">2000</text></g></g><g class="overaxes-above"/></g></g><g class="polarlayer"/><g class="smithlayer"/><g class="ternarylayer"/><g class="geolayer"/><g class="funnelarealayer"/><g class="pielayer"/><g class="iciclelayer"/><g class="treemaplayer"/><g class="sunburstlayer"/><g class="glimages"/><defs id="topdefs-8285f5"><g class="clips"/><clipPath id="legend8285f5"><rect width="233" height="168" x="0" y="0"/></clipPath></defs><g class="layer-above"><g class="imagelayer"/><g class="shapelayer"/></g><g class="infolayer"><g class="legend" pointer-events="all" transform="translate(1354.56,100)"><rect class="bg" shape-rendering="crispEdges" style="stroke: rgb(68, 68, 68); stroke-opacity: 1; fill: rgb(255, 255, 255); fill-opacity: 1; stroke-width: 0px;" width="233" height="168" x="0" y="0"/><g class="scrollbox" transform="" clip-path="url(#legend8285f5)"><g class="groups"><g class="traces" transform="translate(0,20.8)" style="opacity: 1;"><text class="legendtext" text-anchor="start" x="40" y="8.58" style="font-family: Verdana; font-size: 22px; fill: rgb(0, 0, 0); fill-opacity: 1; white-space: pre;">Full Model</text><g class="layers" style="opacity: 1;"><g class="legendfill"/><g class="legendlines"><path class="js-line" d="M5,0h30" style="fill: none; stroke: rgb(27, 158, 119); stroke-opacity: 1; stroke-width: 2px;"/></g><g class="legendsymbols"><g class="legendpoints"><path class="scatterpts" transform="translate(20,0)" d="M3,0A3,3 0 1,1 0,-3A3,3 0 0,1 3,0Z" style="opacity: 1; stroke-width: 0px; fill: rgb(27, 158, 119); fill-opacity: 1;"/></g></g></g><rect class="legendtoggle" x="0" y="-15.8" width="227.953125" height="31.6" style="fill: rgb(0, 0, 0); fill-opacity: 0;"/></g><g class="traces" transform="translate(0,52.400000000000006)" style="opacity: 1;"><text class="legendtext" text-anchor="start" x="40" y="8.58" style="font-family: Verdana; font-size: 22px; fill: rgb(0, 0, 0); fill-opacity: 1; white-space: pre;">Emphasis + Tags</text><g class="layers" style="opacity: 1;"><g class="legendfill"/><g class="legendlines"><path class="js-line" d="M5,0h30" style="fill: none; stroke: rgb(217, 95, 2); stroke-opacity: 1; stroke-width: 2px;"/></g><g class="legendsymbols"><g class="legendpoints"><path class="scatterpts" transform="translate(20,0)" d="M3,0A3,3 0 1,1 0,-3A3,3 0 0,1 3,0Z" style="opacity: 1; stroke-width: 0px; fill: rgb(217, 95, 2); fill-opacity: 1;"/></g></g></g><rect class="legendtoggle" x="0" y="-15.8" width="227.953125" height="31.6" style="fill: rgb(0, 0, 0); fill-opacity: 0;"/></g><g class="traces" transform="translate(0,84)" style="opacity: 1;"><text class="legendtext" text-anchor="start" x="40" y="8.58" style="font-family: Verdana; font-size: 22px; fill: rgb(0, 0, 0); fill-opacity: 1; white-space: pre;">Emphasis-Only</text><g class="layers" style="opacity: 1;"><g class="legendfill"/><g class="legendlines"><path class="js-line" d="M5,0h30" style="fill: none; stroke: rgb(117, 112, 179); stroke-opacity: 1; stroke-width: 2px;"/></g><g class="legendsymbols"><g class="legendpoints"><path class="scatterpts" transform="translate(20,0)" d="M3,0A3,3 0 1,1 0,-3A3,3 0 0,1 3,0Z" style="opacity: 1; stroke-width: 0px; fill: rgb(117, 112, 179); fill-opacity: 1;"/></g></g></g><rect class="legendtoggle" x="0" y="-15.8" width="227.953125" height="31.6" style="fill: rgb(0, 0, 0); fill-opacity: 0;"/></g><g class="traces" transform="translate(0,115.60000000000001)" style="opacity: 1;"><text class="legendtext" text-anchor="start" x="40" y="8.58" style="font-family: Verdana; font-size: 22px; fill: rgb(0, 0, 0); fill-opacity: 1; white-space: pre;">Baseline</text><g class="layers" style="opacity: 1;"><g class="legendfill"/><g class="legendlines"><path class="js-line" d="M5,0h30" style="fill: none; stroke: rgb(231, 41, 138); stroke-opacity: 1; stroke-width: 2px;"/></g><g class="legendsymbols"><g class="legendpoints"><path class="scatterpts" transform="translate(20,0)" d="M3,0A3,3 0 1,1 0,-3A3,3 0 0,1 3,0Z" style="opacity: 1; stroke-width: 0px; fill: rgb(231, 41, 138); fill-opacity: 1;"/></g></g></g><rect class="legendtoggle" x="0" y="-15.8" width="227.953125" height="31.6" style="fill: rgb(0, 0, 0); fill-opacity: 0;"/></g><g class="traces" transform="translate(0,147.20000000000002)" style="opacity: 1;"><text class="legendtext" text-anchor="start" x="40" y="8.58" style="font-family: Verdana; font-size: 22px; fill: rgb(0, 0, 0); fill-opacity: 1; white-space: pre;">Dataset</text><g class="layers" style="opacity: 1;"><g class="legendfill"/><g class="legendlines"><path class="js-line" d="M5,0h30" style="fill: none; stroke: rgb(102, 166, 30); stroke-opacity: 1; stroke-width: 2px;"/></g><g class="legendsymbols"><g class="legendpoints"><path class="scatterpts" transform="translate(20,0)" d="M3,0A3,3 0 1,1 0,-3A3,3 0 0,1 3,0Z" style="opacity: 1; stroke-width: 0px; fill: rgb(102, 166, 30); fill-opacity: 1;"/></g></g></g><rect class="legendtoggle" x="0" y="-15.8" width="227.953125" height="31.6" style="fill: rgb(0, 0, 0); fill-opacity: 0;"/></g></g></g><rect class="scrollbar" rx="20" ry="3" width="0" height="0" style="fill: rgb(128, 139, 164); fill-opacity: 1;" x="0" y="0"/></g><g class="g-gtitle"/><g class="g-xtitle"><text class="xtitle" x="716" y="780.7" text-anchor="middle" style="opacity: 1; font-family: Verdana; font-size: 26px; fill: rgb(0, 0, 0); fill-opacity: 1; white-space: pre;">Note</text></g><g class="g-ytitle" transform="translate(4.552734375,0)"><text class="ytitle" transform="rotate(-90,21.446875000000006,410)" x="21.446875000000006" y="410" text-anchor="middle" style="opacity: 1; font-family: Verdana; font-size: 26px; fill: rgb(0, 0, 0); fill-opacity: 1; white-space: pre;">Euclidean Distance</text></g></g></svg>