<svg class="main-svg" xmlns="http://www.w3.org/2000/svg" xmlns:xlink="http://www.w3.org/1999/xlink" width="1600" height="800" style="" viewBox="0 0 1600 800"><rect x="0" y="0" width="1600" height="800" style="fill: rgb(255, 255, 255); fill-opacity: 1;"/><defs id="defs-f15366"><g class="clips"><clipPath id="clipf15366xyplot" class="plotclip"><rect width="1228" height="620"/></clipPath><clipPath class="axesclip" id="clipf15366x"><rect x="102" y="0" width="1228" height="800"/></clipPath><clipPath class="axesclip" id="clipf15366y"><rect x="0" y="100" width="1600" height="620"/></clipPath><clipPath class="axesclip" id="clipf15366xy"><rect x="102" y="100" width="1228" height="620"/></clipPath></g><g class="gradients"/><g class="patterns"/></defs><g class="bglayer"/><g class="layer-below"><g class="imagelayer"/><g class="shapelayer"/></g><g class="cartesianlayer"><g class="subplot xy"><g class="layer-subplot"><g class="shapelayer"/><g class="imagelayer"/></g><g class="minor-gridlayer"><g class="x"/><g class="y"/></g><g class="gridlayer"><g class="x"><path class="xgrid crisp" transform="translate(253.49,0)" d="M0,100v620" style="stroke: rgb(235, 240, 248); stroke-opacity: 1; stroke-width: 1px;"/><path class="xgrid crisp" transform="translate(330.57,0)" d="M0,100v620" style="stroke: rgb(235, 240, 248); stroke-opacity: 1; stroke-width: 1px;"/><path class="xgrid crisp" transform="translate(407.66,0)" d="M0,100v620" style="stroke: rgb(235, 240, 248); stroke-opacity: 1; stroke-width: 1px;"/><path class="xgrid crisp" transform="translate(484.74,0)" d="M0,100v620" style="stroke: rgb(235, 240, 248); stroke-opacity: 1; stroke-width: 1px;"/><path class="xgrid crisp" transform="translate(561.8299999999999,0)" d="M0,100v620" style="stroke: rgb(235, 240, 248); stroke-opacity: 1; stroke-width: 1px;"/><path class="xgrid crisp" transform="translate(638.91,0)" d="M0,100v620" style="stroke: rgb(235, 240, 248); stroke-opacity: 1; stroke-width: 1px;"/><path class="xgrid crisp" transform="translate(716,0)" d="M0,100v620" style="stroke: rgb(235, 240, 248); stroke-opacity: 1; stroke-width: 1px;"/><path class="xgrid crisp" transform="translate(793.09,0)" d="M0,100v620" style="stroke: rgb(235, 240, 248); stroke-opacity: 1; stroke-width: 1px;"/><path class="xgrid crisp" transform="translate(870.17,0)" d="M0,100v620" style="stroke: rgb(235, 240, 248); stroke-opacity: 1; stroke-width: 1px;"/><path class="xgrid crisp" transform="translate(947.26,0)" d="M0,100v620" style="stroke: rgb(235, 240, 248); stroke-opacity: 1; stroke-width: 1px;"/><path class="xgrid crisp" transform="translate(1024.3400000000001,0)" d="M0,100v620" style="stroke: rgb(235, 240, 248); stroke-opacity: 1; stroke-width: 1px;"/><path class="xgrid crisp" transform="translate(1101.4299999999998,0)" d="M0,100v620" style="stroke: rgb(235, 240, 248); stroke-opacity: 1; stroke-width: 1px;"/><path class="xgrid crisp" transform="translate(1178.51,0)" d="M0,100v620" style="stroke: rgb(235, 240, 248); stroke-opacity: 1; stroke-width: 1px;"/><path class="xgrid crisp" transform="translate(1255.6,0)" d="M0,100v620" style="stroke: rgb(235, 240, 248); stroke-opacity: 1; stroke-width: 1px;"/></g><g class="y"><path class="ygrid crisp" transform="translate(0,511.64)" d="M102,0h1228" style="stroke: rgb(235, 240, 248); stroke-opacity: 1; stroke-width: 1px;"/><path class="ygrid crisp" transform="translate(0,393.84)" d="M102,0h1228" style="stroke: rgb(235, 240, 248); stroke-opacity: 1; stroke-width: 1px;"/><path class="ygrid crisp" transform="translate(0,276.05)" d="M102,0h1228" style="stroke: rgb(235, 240, 248); stroke-opacity: 1; stroke-width: 1px;"/><path class="ygrid crisp" transform="translate(0,158.26)" d="M102,0h1228" style="stroke: rgb(235, 240, 248); stroke-opacity: 1; stroke-width: 1px;"/></g></g><g class="zerolinelayer"><path class="xzl zl crisp" transform="translate(176.4,0)" d="M0,100v620" style="stroke: rgb(235, 240, 248); stroke-opacity: 1; stroke-width: 2px;"/><path class="yzl zl crisp" transform="translate(0,629.43)" d="M102,0h1228" style="stroke: rgb(235, 240, 248); stroke-opacity: 1; stroke-width: 2px;"/></g><g class="layer-between"><g class="shapelayer"/><g class="imagelayer"/></g><path class="xlines-below"/><path class="ylines-below"/><g class="overlines-below"/><g class="xaxislayer-below"/><g class="yaxislayer-below"/><g class="overaxes-below"/><g class="overplot"><g class="xy" transform="translate(102,100)" clip-path="url(#clipf15366xyplot)"><g class="scatterlayer mlayer"><g class="trace scatter tracea2c306" style="stroke-miterlimit: 2; opacity: 1;"><g class="fills"/><g class="errorbars"><g class="errorbar" style="opacity: 1;"><path class="yerror" d="M61.150000000000006,529.43h8m-4,0V529.43m-4,0h8" style="vector-effect: none; stroke-width: 2px; stroke: rgb(27, 158, 119); stroke-opacity: 1;"/></g><g class="errorbar" style="opacity: 1;"><path class="yerror" d="M138.24,529.43h8m-4,0V529.43m-4,0h8" style="vector-effect: none; stroke-width: 2px; stroke: rgb(27, 158, 119); stroke-opacity: 1;"/></g><g class="errorbar" style="opacity: 1;"><path class="yerror" d="M215.32,529.43h8m-4,0V529.43m-4,0h8" style="vector-effect: none; stroke-width: 2px; stroke: rgb(27, 158, 119); stroke-opacity: 1;"/></g><g class="errorbar" style="opacity: 1;"><path class="yerror" d="M292.41,504.39h8m-4,0V506.92m-4,0h8" style="vector-effect: none; stroke-width: 2px; stroke: rgb(27, 158, 119); stroke-opacity: 1;"/></g><g class="errorbar" style="opacity: 1;"><path class="yerror" d="M369.49,168.96h8m-4,0V583.72m-4,0h8" style="vector-effect: none; stroke-width: 2px; stroke: rgb(27, 158, 119); stroke-opacity: 1;"/></g><g class="errorbar" style="opacity: 1;"><path class="yerror" d="M446.58,472.93h8m-4,0V523.24m-4,0h8" style="vector-effect: none; stroke-width: 2px; stroke: rgb(27, 158, 119); stroke-opacity: 1;"/></g><g class="errorbar" style="opacity: 1;"><path class="yerror" d="M523.66,455.28h8m-4,0V521.39m-4,0h8" style="vector-effect: none; stroke-width: 2px; stroke: rgb(27, 158, 119); stroke-opacity: 1;"/></g><g class="errorbar" style="opacity: 1;"><path class="yerror" d="M600.75,467.66h8m-4,0V486.66m-4,0h8" style="vector-effect: none; stroke-width: 2px; stroke: rgb(27, 158, 119); stroke-opacity: 1;"/></g><g class="errorbar" style="opacity: 1;"><path class="yerror" d="M677.84,518.62h8m-4,0V522.97m-4,0h8" style="vector-effect: none; stroke-width: 2px; stroke: rgb(27, 158, 119); stroke-opacity: 1;"/></g><g class="errorbar" style="opacity: 1;"><path class="yerror" d="M754.92,489.37h8m-4,0V498.65m-4,0h8" style="vector-effect: none; stroke-width: 2px; stroke: rgb(27, 158, 119); stroke-opacity: 1;"/></g><g class="errorbar" style="opacity: 1;"><path class="yerror" d="M832.01,491.31h8m-4,0V494.75m-4,0h8" style="vector-effect: none; stroke-width: 2px; stroke: rgb(27, 158, 119); stroke-opacity: 1;"/></g><g class="errorbar" style="opacity: 1;"><path class="yerror" d="M909.09,489.31h8m-4,0V489.59m-4,0h8" style="vector-effect: none; stroke-width: 2px; stroke: rgb(27, 158, 119); stroke-opacity: 1;"/></g><g class="errorbar" style="opacity: 1;"><path class="yerror" d="M986.18,478.9h8m-4,0V496.88m-4,0h8" style="vector-effect: none; stroke-width: 2px; stroke: rgb(27, 158, 119); stroke-opacity: 1;"/></g><g class="errorbar" style="opacity: 1;"><path class="yerror" d="M1063.26,490.09h8m-4,0V494.28m-4,0h8" style="vector-effect: none; stroke-width: 2px; stroke: rgb(27, 158, 119); stroke-opacity: 1;"/></g><g class="errorbar" style="opacity: 1;"><path class="yerror" d="M1140.35,529.43h8m-4,0V529.43m-4,0h8" style="vector-effect: none; stroke-width: 2px; stroke: rgb(27, 158, 119); stroke-opacity: 1;"/></g></g><g class="lines"><path class="js-line" d="M65.15,529.43L219.32,529.43L296.41,505.66L373.49,376.34L450.58,498.08L527.66,488.33L604.75,477.16L681.84,520.79L758.92,494.01L836.01,493.03L913.09,489.45L990.18,487.89L1067.26,492.18L1144.35,529.43" style="vector-effect: none; fill: none; stroke: rgb(27, 158, 119); stroke-opacity: 1; stroke-width: 2px; opacity: 1;"/></g><g class="points"><path class="point" transform="translate(65.15,529.43)" d="M3,0A3,3 0 1,1 0,-3A3,3 0 0,1 3,0Z" style="opacity: 1; stroke-width: 0px; fill: rgb(27, 158, 119); fill-opacity: 1;"/><path class="point" transform="translate(142.24,529.43)" d="M3,0A3,3 0 1,1 0,-3A3,3 0 0,1 3,0Z" style="opacity: 1; stroke-width: 0px; fill: rgb(27, 158, 119); fill-opacity: 1;"/><path class="point" transform="translate(219.32,529.43)" d="M3,0A3,3 0 1,1 0,-3A3,3 0 0,1 3,0Z" style="opacity: 1; stroke-width: 0px; fill: rgb(27, 158, 119); fill-opacity: 1;"/><path class="point" transform="translate(296.41,505.66)" d="M3,0A3,3 0 1,1 0,-3A3,3 0 0,1 3,0Z" style="opacity: 1; stroke-width: 0px; fill: rgb(27, 158, 119); fill-opacity: 1;"/><path class="point" transform="translate(373.49,376.34)" d="M3,0A3,3 0 1,1 0,-3A3,3 0 0,1 3,0Z" style="opacity: 1; stroke-width: 0px; fill: rgb(27, 158, 119); fill-opacity: 1;"/><path class="point" transform="translate(450.58,498.08)" d="M3,0A3,3 0 1,1 0,-3A3,3 0 0,1 3,0Z" style="opacity: 1; stroke-width: 0px; fill: rgb(27, 158, 119); fill-opacity: 1;"/><path class="point" transform="translate(527.66,488.33)" d="M3,0A3,3 0 1,1 0,-3A3,3 0 0,1 3,0Z" style="opacity: 1; stroke-width: 0px; fill: rgb(27, 158, 119); fill-opacity: 1;"/><path class="point" transform="translate(604.75,477.16)" d="M3,0A3,3 0 1,1 0,-3A3,3 0 0,1 3,0Z" style="opacity: 1; stroke-width: 0px; fill: rgb(27, 158, 119); fill-opacity: 1;"/><path class="point" transform="translate(681.84,520.79)" d="M3,0A3,3 0 1,1 0,-3A3,3 0 0,1 3,0Z" style="opacity: 1; stroke-width: 0px; fill: rgb(27, 158, 119); fill-opacity: 1;"/><path class="point" transform="translate(758.92,494.01)" d="M3,0A3,3 0 1,1 0,-3A3,3 0 0,1 3,0Z" style="opacity: 1; stroke-width: 0px; fill: rgb(27, 158, 119); fill-opacity: 1;"/><path class="point" transform="translate(836.01,493.03)" d="M3,0A3,3 0 1,1 0,-3A3,3 0 0,1 3,0Z" style="opacity: 1; stroke-width: 0px; fill: rgb(27, 158, 119); fill-opacity: 1;"/><path class="point" transform="translate(913.09,489.45)" d="M3,0A3,3 0 1,1 0,-3A3,3 0 0,1 3,0Z" style="opacity: 1; stroke-width: 0px; fill: rgb(27, 158, 119); fill-opacity: 1;"/><path class="point" transform="translate(990.18,487.89)" d="M3,0A3,3 0 1,1 0,-3A3,3 0 0,1 3,0Z" style="opacity: 1; stroke-width: 0px; fill: rgb(27, 158, 119); fill-opacity: 1;"/><path class="point" transform="translate(1067.26,492.18)" d="M3,0A3,3 0 1,1 0,-3A3,3 0 0,1 3,0Z" style="opacity: 1; stroke-width: 0px; fill: rgb(27, 158, 119); fill-opacity: 1;"/><path class="point" transform="translate(1144.35,529.43)" d="M3,0A3,3 0 1,1 0,-3A3,3 0 0,1 3,0Z" style="opacity: 1; stroke-width: 0px; fill: rgb(27, 158, 119); fill-opacity: 1;"/></g><g class="text"/></g><g class="trace scatter trace6d7a6e" style="stroke-miterlimit: 2; opacity: 1;"><g class="fills"/><g class="errorbars"><g class="errorbar" style="opacity: 1;"><path class="yerror" d="M65.78,529.43h8m-4,0V529.43m-4,0h8" style="vector-effect: none; stroke-width: 2px; stroke: rgb(217, 95, 2); stroke-opacity: 1;"/></g><g class="errorbar" style="opacity: 1;"><path class="yerror" d="M142.86,529.43h8m-4,0V529.43m-4,0h8" style="vector-effect: none; stroke-width: 2px; stroke: rgb(217, 95, 2); stroke-opacity: 1;"/></g><g class="errorbar" style="opacity: 1;"><path class="yerror" d="M219.95,529.43h8m-4,0V529.43m-4,0h8" style="vector-effect: none; stroke-width: 2px; stroke: rgb(217, 95, 2); stroke-opacity: 1;"/></g><g class="errorbar" style="opacity: 1;"><path class="yerror" d="M297.03,505.61h8m-4,0V506.07m-4,0h8" style="vector-effect: none; stroke-width: 2px; stroke: rgb(217, 95, 2); stroke-opacity: 1;"/></g><g class="errorbar" style="opacity: 1;"><path class="yerror" d="M374.12,182.41h8m-4,0V586.28m-4,0h8" style="vector-effect: none; stroke-width: 2px; stroke: rgb(217, 95, 2); stroke-opacity: 1;"/></g><g class="errorbar" style="opacity: 1;"><path class="yerror" d="M451.2,469.07h8m-4,0V524.99m-4,0h8" style="vector-effect: none; stroke-width: 2px; stroke: rgb(217, 95, 2); stroke-opacity: 1;"/></g><g class="errorbar" style="opacity: 1;"><path class="yerror" d="M528.29,425.61h8m-4,0V538.05m-4,0h8" style="vector-effect: none; stroke-width: 2px; stroke: rgb(217, 95, 2); stroke-opacity: 1;"/></g><g class="errorbar" style="opacity: 1;"><path class="yerror" d="M605.37,470.2h8m-4,0V486.51m-4,0h8" style="vector-effect: none; stroke-width: 2px; stroke: rgb(217, 95, 2); stroke-opacity: 1;"/></g><g class="errorbar" style="opacity: 1;"><path class="yerror" d="M682.46,520.02h8m-4,0V522.38m-4,0h8" style="vector-effect: none; stroke-width: 2px; stroke: rgb(217, 95, 2); stroke-opacity: 1;"/></g><g class="errorbar" style="opacity: 1;"><path class="yerror" d="M759.55,496.13h8m-4,0V504.39m-4,0h8" style="vector-effect: none; stroke-width: 2px; stroke: rgb(217, 95, 2); stroke-opacity: 1;"/></g><g class="errorbar" style="opacity: 1;"><path class="yerror" d="M836.63,491.12h8m-4,0V494.93m-4,0h8" style="vector-effect: none; stroke-width: 2px; stroke: rgb(217, 95, 2); stroke-opacity: 1;"/></g><g class="errorbar" style="opacity: 1;"><path class="yerror" d="M913.72,489.33h8m-4,0V489.65m-4,0h8" style="vector-effect: none; stroke-width: 2px; stroke: rgb(217, 95, 2); stroke-opacity: 1;"/></g><g class="errorbar" style="opacity: 1;"><path class="yerror" d="M990.8,479.28h8m-4,0V499.2m-4,0h8" style="vector-effect: none; stroke-width: 2px; stroke: rgb(217, 95, 2); stroke-opacity: 1;"/></g><g class="errorbar" style="opacity: 1;"><path class="yerror" d="M1067.89,490.5h8m-4,0V494.38m-4,0h8" style="vector-effect: none; stroke-width: 2px; stroke: rgb(217, 95, 2); stroke-opacity: 1;"/></g><g class="errorbar" style="opacity: 1;"><path class="yerror" d="M1144.97,529.43h8m-4,0V529.43m-4,0h8" style="vector-effect: none; stroke-width: 2px; stroke: rgb(217, 95, 2); stroke-opacity: 1;"/></g></g><g class="lines"><path class="js-line" d="M69.78,529.43L223.95,529.43L301.03,505.84L378.12,384.35L455.2,497.03L532.29,481.83L609.37,478.36L686.46,521.2L763.55,500.26L840.63,493.03L917.72,489.49L994.8,489.24L1071.89,492.44L1148.97,529.43" style="vector-effect: none; fill: none; stroke: rgb(217, 95, 2); stroke-opacity: 1; stroke-width: 2px; opacity: 1;"/></g><g class="points"><path class="point" transform="translate(69.78,529.43)" d="M3,0A3,3 0 1,1 0,-3A3,3 0 0,1 3,0Z" style="opacity: 1; stroke-width: 0px; fill: rgb(217, 95, 2); fill-opacity: 1;"/><path class="point" transform="translate(146.86,529.43)" d="M3,0A3,3 0 1,1 0,-3A3,3 0 0,1 3,0Z" style="opacity: 1; stroke-width: 0px; fill: rgb(217, 95, 2); fill-opacity: 1;"/><path class="point" transform="translate(223.95,529.43)" d="M3,0A3,3 0 1,1 0,-3A3,3 0 0,1 3,0Z" style="opacity: 1; stroke-width: 0px; fill: rgb(217, 95, 2); fill-opacity: 1;"/><path class="point" transform="translate(301.03,505.84)" d="M3,0A3,3 0 1,1 0,-3A3,3 0 0,1 3,0Z" style="opacity: 1; stroke-width: 0px; fill: rgb(217, 95, 2); fill-opacity: 1;"/><path class="point" transform="translate(378.12,384.35)" d="M3,0A3,3 0 1,1 0,-3A3,3 0 0,1 3,0Z" style="opacity: 1; stroke-width: 0px; fill: rgb(217, 95, 2); fill-opacity: 1;"/><path class="point" transform="translate(455.2,497.03)" d="M3,0A3,3 0 1,1 0,-3A3,3 0 0,1 3,0Z" style="opacity: 1; stroke-width: 0px; fill: rgb(217, 95, 2); fill-opacity: 1;"/><path class="point" transform="translate(532.29,481.83)" d="M3,0A3,3 0 1,1 0,-3A3,3 0 0,1 3,0Z" style="opacity: 1; stroke-width: 0px; fill: rgb(217, 95, 2); fill-opacity: 1;"/><path class="point" transform="translate(609.37,478.36)" d="M3,0A3,3 0 1,1 0,-3A3,3 0 0,1 3,0Z" style="opacity: 1; stroke-width: 0px; fill: rgb(217, 95, 2); fill-opacity: 1;"/><path class="point" transform="translate(686.46,521.2)" d="M3,0A3,3 0 1,1 0,-3A3,3 0 0,1 3,0Z" style="opacity: 1; stroke-width: 0px; fill: rgb(217, 95, 2); fill-opacity: 1;"/><path class="point" transform="translate(763.55,500.26)" d="M3,0A3,3 0 1,1 0,-3A3,3 0 0,1 3,0Z" style="opacity: 1; stroke-width: 0px; fill: rgb(217, 95, 2); fill-opacity: 1;"/><path class="point" transform="translate(840.63,493.03)" d="M3,0A3,3 0 1,1 0,-3A3,3 0 0,1 3,0Z" style="opacity: 1; stroke-width: 0px; fill: rgb(217, 95, 2); fill-opacity: 1;"/><path class="point" transform="translate(917.72,489.49)" d="M3,0A3,3 0 1,1 0,-3A3,3 0 0,1 3,0Z" style="opacity: 1; stroke-width: 0px; fill: rgb(217, 95, 2); fill-opacity: 1;"/><path class="point" transform="translate(994.8,489.24)" d="M3,0A3,3 0 1,1 0,-3A3,3 0 0,1 3,0Z" style="opacity: 1; stroke-width: 0px; fill: rgb(217, 95, 2); fill-opacity: 1;"/><path class="point" transform="translate(1071.89,492.44)" d="M3,0A3,3 0 1,1 0,-3A3,3 0 0,1 3,0Z" style="opacity: 1; stroke-width: 0px; fill: rgb(217, 95, 2); fill-opacity: 1;"/><path class="point" transform="translate(1148.97,529.43)" d="M3,0A3,3 0 1,1 0,-3A3,3 0 0,1 3,0Z" style="opacity: 1; stroke-width: 0px; fill: rgb(217, 95, 2); fill-opacity: 1;"/></g><g class="text"/></g><g class="trace scatter trace313e33" style="stroke-miterlimit: 2; opacity: 1;"><g class="fills"/><g class="errorbars"><g class="errorbar" style="opacity: 1;"><path class="yerror" d="M70.4,529.43h8m-4,0V529.43m-4,0h8" style="vector-effect: none; stroke-width: 2px; stroke: rgb(117, 112, 179); stroke-opacity: 1;"/></g><g class="errorbar" style="opacity: 1;"><path class="yerror" d="M147.49,529.43h8m-4,0V529.43m-4,0h8" style="vector-effect: none; stroke-width: 2px; stroke: rgb(117, 112, 179); stroke-opacity: 1;"/></g><g class="errorbar" style="opacity: 1;"><path class="yerror" d="M224.57,529.43h8m-4,0V529.43m-4,0h8" style="vector-effect: none; stroke-width: 2px; stroke: rgb(117, 112, 179); stroke-opacity: 1;"/></g><g class="errorbar" style="opacity: 1;"><path class="yerror" d="M301.66,518.59h8m-4,0V533.61m-4,0h8" style="vector-effect: none; stroke-width: 2px; stroke: rgb(117, 112, 179); stroke-opacity: 1;"/></g><g class="errorbar" style="opacity: 1;"><path class="yerror" d="M378.74,31h8m-4,0V466.08m-4,0h8" style="vector-effect: none; stroke-width: 2px; stroke: rgb(117, 112, 179); stroke-opacity: 1;"/></g><g class="errorbar" style="opacity: 1;"><path class="yerror" d="M455.83,508.98h8m-4,0V533.31m-4,0h8" style="vector-effect: none; stroke-width: 2px; stroke: rgb(117, 112, 179); stroke-opacity: 1;"/></g><g class="errorbar" style="opacity: 1;"><path class="yerror" d="M532.91,381.11h8m-4,0V589m-4,0h8" style="vector-effect: none; stroke-width: 2px; stroke: rgb(117, 112, 179); stroke-opacity: 1;"/></g><g class="errorbar" style="opacity: 1;"><path class="yerror" d="M610,489.63h8m-4,0V526.77m-4,0h8" style="vector-effect: none; stroke-width: 2px; stroke: rgb(117, 112, 179); stroke-opacity: 1;"/></g><g class="errorbar" style="opacity: 1;"><path class="yerror" d="M687.09,502.25h8m-4,0V533.07m-4,0h8" style="vector-effect: none; stroke-width: 2px; stroke: rgb(117, 112, 179); stroke-opacity: 1;"/></g><g class="errorbar" style="opacity: 1;"><path class="yerror" d="M764.17,503.26h8m-4,0V546.57m-4,0h8" style="vector-effect: none; stroke-width: 2px; stroke: rgb(117, 112, 179); stroke-opacity: 1;"/></g><g class="errorbar" style="opacity: 1;"><path class="yerror" d="M841.26,495.75h8m-4,0V542.3m-4,0h8" style="vector-effect: none; stroke-width: 2px; stroke: rgb(117, 112, 179); stroke-opacity: 1;"/></g><g class="errorbar" style="opacity: 1;"><path class="yerror" d="M918.34,459.5h8m-4,0V508.89m-4,0h8" style="vector-effect: none; stroke-width: 2px; stroke: rgb(117, 112, 179); stroke-opacity: 1;"/></g><g class="errorbar" style="opacity: 1;"><path class="yerror" d="M995.43,516.29h8m-4,0V528.66m-4,0h8" style="vector-effect: none; stroke-width: 2px; stroke: rgb(117, 112, 179); stroke-opacity: 1;"/></g><g class="errorbar" style="opacity: 1;"><path class="yerror" d="M1072.51,526.17h8m-4,0V531.31m-4,0h8" style="vector-effect: none; stroke-width: 2px; stroke: rgb(117, 112, 179); stroke-opacity: 1;"/></g><g class="errorbar" style="opacity: 1;"><path class="yerror" d="M1149.6,529.43h8m-4,0V529.43m-4,0h8" style="vector-effect: none; stroke-width: 2px; stroke: rgb(117, 112, 179); stroke-opacity: 1;"/></g></g><g class="lines"><path class="js-line" d="M74.4,529.43L228.57,529.43L305.66,526.1L382.74,248.54L459.83,521.15L536.91,485.05L614,508.2L691.09,517.66L768.17,524.92L845.26,519.02L922.34,484.2L999.43,522.47L1076.51,528.74L1153.6,529.43" style="vector-effect: none; fill: none; stroke: rgb(117, 112, 179); stroke-opacity: 1; stroke-width: 2px; opacity: 1;"/></g><g class="points"><path class="point" transform="translate(74.4,529.43)" d="M3,0A3,3 0 1,1 0,-3A3,3 0 0,1 3,0Z" style="opacity: 1; stroke-width: 0px; fill: rgb(117, 112, 179); fill-opacity: 1;"/><path class="point" transform="translate(151.49,529.43)" d="M3,0A3,3 0 1,1 0,-3A3,3 0 0,1 3,0Z" style="opacity: 1; stroke-width: 0px; fill: rgb(117, 112, 179); fill-opacity: 1;"/><path class="point" transform="translate(228.57,529.43)" d="M3,0A3,3 0 1,1 0,-3A3,3 0 0,1 3,0Z" style="opacity: 1; stroke-width: 0px; fill: rgb(117, 112, 179); fill-opacity: 1;"/><path class="point" transform="translate(305.66,526.1)" d="M3,0A3,3 0 1,1 0,-3A3,3 0 0,1 3,0Z" style="opacity: 1; stroke-width: 0px; fill: rgb(117, 112, 179); fill-opacity: 1;"/><path class="point" transform="translate(382.74,248.54)" d="M3,0A3,3 0 1,1 0,-3A3,3 0 0,1 3,0Z" style="opacity: 1; stroke-width: 0px; fill: rgb(117, 112, 179); fill-opacity: 1;"/><path class="point" transform="translate(459.83,521.15)" d="M3,0A3,3 0 1,1 0,-3A3,3 0 0,1 3,0Z" style="opacity: 1; stroke-width: 0px; fill: rgb(117, 112, 179); fill-opacity: 1;"/><path class="point" transform="translate(536.91,485.05)" d="M3,0A3,3 0 1,1 0,-3A3,3 0 0,1 3,0Z" style="opacity: 1; stroke-width: 0px; fill: rgb(117, 112, 179); fill-opacity: 1;"/><path class="point" transform="translate(614,508.2)" d="M3,0A3,3 0 1,1 0,-3A3,3 0 0,1 3,0Z" style="opacity: 1; stroke-width: 0px; fill: rgb(117, 112, 179); fill-opacity: 1;"/><path class="point" transform="translate(691.09,517.66)" d="M3,0A3,3 0 1,1 0,-3A3,3 0 0,1 3,0Z" style="opacity: 1; stroke-width: 0px; fill: rgb(117, 112, 179); fill-opacity: 1;"/><path class="point" transform="translate(768.17,524.92)" d="M3,0A3,3 0 1,1 0,-3A3,3 0 0,1 3,0Z" style="opacity: 1; stroke-width: 0px; fill: rgb(117, 112, 179); fill-opacity: 1;"/><path class="point" transform="translate(845.26,519.02)" d="M3,0A3,3 0 1,1 0,-3A3,3 0 0,1 3,0Z" style="opacity: 1; stroke-width: 0px; fill: rgb(117, 112, 179); fill-opacity: 1;"/><path class="point" transform="translate(922.34,484.2)" d="M3,0A3,3 0 1,1 0,-3A3,3 0 0,1 3,0Z" style="opacity: 1; stroke-width: 0px; fill: rgb(117, 112, 179); fill-opacity: 1;"/><path class="point" transform="translate(999.43,522.47)" d="M3,0A3,3 0 1,1 0,-3A3,3 0 0,1 3,0Z" style="opacity: 1; stroke-width: 0px; fill: rgb(117, 112, 179); fill-opacity: 1;"/><path class="point" transform="translate(1076.51,528.74)" d="M3,0A3,3 0 1,1 0,-3A3,3 0 0,1 3,0Z" style="opacity: 1; stroke-width: 0px; fill: rgb(117, 112, 179); fill-opacity: 1;"/><path class="point" transform="translate(1153.6,529.43)" d="M3,0A3,3 0 1,1 0,-3A3,3 0 0,1 3,0Z" style="opacity: 1; stroke-width: 0px; fill: rgb(117, 112, 179); fill-opacity: 1;"/></g><g class="text"/></g><g class="trace scatter trace8db02d" style="stroke-miterlimit: 2; opacity: 1;"><g class="fills"/><g class="errorbars"><g class="errorbar" style="opacity: 1;"><path class="yerror" d="M75.03,529.43h8m-4,0V529.43m-4,0h8" style="vector-effect: none; stroke-width: 2px; stroke: rgb(231, 41, 138); stroke-opacity: 1;"/></g><g class="errorbar" style="opacity: 1;"><path class="yerror" d="M152.11,529.43h8m-4,0V529.43m-4,0h8" style="vector-effect: none; stroke-width: 2px; stroke: rgb(231, 41, 138); stroke-opacity: 1;"/></g><g class="errorbar" style="opacity: 1;"><path class="yerror" d="M229.2,529.43h8m-4,0V529.43m-4,0h8" style="vector-effect: none; stroke-width: 2px; stroke: rgb(231, 41, 138); stroke-opacity: 1;"/></g><g class="errorbar" style="opacity: 1;"><path class="yerror" d="M306.28,184.33h8m-4,0V450.62m-4,0h8" style="vector-effect: none; stroke-width: 2px; stroke: rgb(231, 41, 138); stroke-opacity: 1;"/></g><g class="errorbar" style="opacity: 1;"><path class="yerror" d="M383.37,158.09h8m-4,0V433.34m-4,0h8" style="vector-effect: none; stroke-width: 2px; stroke: rgb(231, 41, 138); stroke-opacity: 1;"/></g><g class="errorbar" style="opacity: 1;"><path class="yerror" d="M460.45,189.97h8m-4,0V464.76m-4,0h8" style="vector-effect: none; stroke-width: 2px; stroke: rgb(231, 41, 138); stroke-opacity: 1;"/></g><g class="errorbar" style="opacity: 1;"><path class="yerror" d="M537.54,210.01h8m-4,0V467.53m-4,0h8" style="vector-effect: none; stroke-width: 2px; stroke: rgb(231, 41, 138); stroke-opacity: 1;"/></g><g class="errorbar" style="opacity: 1;"><path class="yerror" d="M614.63,251.3h8m-4,0V471.76m-4,0h8" style="vector-effect: none; stroke-width: 2px; stroke: rgb(231, 41, 138); stroke-opacity: 1;"/></g><g class="errorbar" style="opacity: 1;"><path class="yerror" d="M691.71,313.67h8m-4,0V468.06m-4,0h8" style="vector-effect: none; stroke-width: 2px; stroke: rgb(231, 41, 138); stroke-opacity: 1;"/></g><g class="errorbar" style="opacity: 1;"><path class="yerror" d="M768.8,335.62h8m-4,0V474.98m-4,0h8" style="vector-effect: none; stroke-width: 2px; stroke: rgb(231, 41, 138); stroke-opacity: 1;"/></g><g class="errorbar" style="opacity: 1;"><path class="yerror" d="M845.88,312.94h8m-4,0V498.38m-4,0h8" style="vector-effect: none; stroke-width: 2px; stroke: rgb(231, 41, 138); stroke-opacity: 1;"/></g><g class="errorbar" style="opacity: 1;"><path class="yerror" d="M922.97,285.61h8m-4,0V489.35m-4,0h8" style="vector-effect: none; stroke-width: 2px; stroke: rgb(231, 41, 138); stroke-opacity: 1;"/></g><g class="errorbar" style="opacity: 1;"><path class="yerror" d="M1000.05,251.11h8m-4,0V470.3m-4,0h8" style="vector-effect: none; stroke-width: 2px; stroke: rgb(231, 41, 138); stroke-opacity: 1;"/></g><g class="errorbar" style="opacity: 1;"><path class="yerror" d="M1077.14,257.75h8m-4,0V493.29m-4,0h8" style="vector-effect: none; stroke-width: 2px; stroke: rgb(231, 41, 138); stroke-opacity: 1;"/></g><g class="errorbar" style="opacity: 1;"><path class="yerror" d="M1154.22,529.43h8m-4,0V529.43m-4,0h8" style="vector-effect: none; stroke-width: 2px; stroke: rgb(231, 41, 138); stroke-opacity: 1;"/></g></g><g class="lines"><path class="js-line" d="M79.03,529.43L233.2,529.43L310.28,317.48L387.37,295.71L464.45,327.37L541.54,338.77L618.63,361.53L695.71,390.87L772.8,405.3L849.88,405.66L926.97,387.48L1004.05,360.7L1081.14,375.52L1158.22,529.43" style="vector-effect: none; fill: none; stroke: rgb(231, 41, 138); stroke-opacity: 1; stroke-width: 2px; opacity: 1;"/></g><g class="points"><path class="point" transform="translate(79.03,529.43)" d="M3,0A3,3 0 1,1 0,-3A3,3 0 0,1 3,0Z" style="opacity: 1; stroke-width: 0px; fill: rgb(231, 41, 138); fill-opacity: 1;"/><path class="point" transform="translate(156.11,529.43)" d="M3,0A3,3 0 1,1 0,-3A3,3 0 0,1 3,0Z" style="opacity: 1; stroke-width: 0px; fill: rgb(231, 41, 138); fill-opacity: 1;"/><path class="point" transform="translate(233.2,529.43)" d="M3,0A3,3 0 1,1 0,-3A3,3 0 0,1 3,0Z" style="opacity: 1; stroke-width: 0px; fill: rgb(231, 41, 138); fill-opacity: 1;"/><path class="point" transform="translate(310.28,317.48)" d="M3,0A3,3 0 1,1 0,-3A3,3 0 0,1 3,0Z" style="opacity: 1; stroke-width: 0px; fill: rgb(231, 41, 138); fill-opacity: 1;"/><path class="point" transform="translate(387.37,295.71)" d="M3,0A3,3 0 1,1 0,-3A3,3 0 0,1 3,0Z" style="opacity: 1; stroke-width: 0px; fill: rgb(231, 41, 138); fill-opacity: 1;"/><path class="point" transform="translate(464.45,327.37)" d="M3,0A3,3 0 1,1 0,-3A3,3 0 0,1 3,0Z" style="opacity: 1; stroke-width: 0px; fill: rgb(231, 41, 138); fill-opacity: 1;"/><path class="point" transform="translate(541.54,338.77)" d="M3,0A3,3 0 1,1 0,-3A3,3 0 0,1 3,0Z" style="opacity: 1; stroke-width: 0px; fill: rgb(231, 41, 138); fill-opacity: 1;"/><path class="point" transform="translate(618.63,361.53)" d="M3,0A3,3 0 1,1 0,-3A3,3 0 0,1 3,0Z" style="opacity: 1; stroke-width: 0px; fill: rgb(231, 41, 138); fill-opacity: 1;"/><path class="point" transform="translate(695.71,390.87)" d="M3,0A3,3 0 1,1 0,-3A3,3 0 0,1 3,0Z" style="opacity: 1; stroke-width: 0px; fill: rgb(231, 41, 138); fill-opacity: 1;"/><path class="point" transform="translate(772.8,405.3)" d="M3,0A3,3 0 1,1 0,-3A3,3 0 0,1 3,0Z" style="opacity: 1; stroke-width: 0px; fill: rgb(231, 41, 138); fill-opacity: 1;"/><path class="point" transform="translate(849.88,405.66)" d="M3,0A3,3 0 1,1 0,-3A3,3 0 0,1 3,0Z" style="opacity: 1; stroke-width: 0px; fill: rgb(231, 41, 138); fill-opacity: 1;"/><path class="point" transform="translate(926.97,387.48)" d="M3,0A3,3 0 1,1 0,-3A3,3 0 0,1 3,0Z" style="opacity: 1; stroke-width: 0px; fill: rgb(231, 41, 138); fill-opacity: 1;"/><path class="point" transform="translate(1004.05,360.7)" d="M3,0A3,3 0 1,1 0,-3A3,3 0 0,1 3,0Z" style="opacity: 1; stroke-width: 0px; fill: rgb(231, 41, 138); fill-opacity: 1;"/><path class="point" transform="translate(1081.14,375.52)" d="M3,0A3,3 0 1,1 0,-3A3,3 0 0,1 3,0Z" style="opacity: 1; stroke-width: 0px; fill: rgb(231, 41, 138); fill-opacity: 1;"/><path class="point" transform="translate(1158.22,529.43)" d="M3,0A3,3 0 1,1 0,-3A3,3 0 0,1 3,0Z" style="opacity: 1; stroke-width: 0px; fill: rgb(231, 41, 138); fill-opacity: 1;"/></g><g class="text"/></g><g class="trace scatter trace2ac82e" style="stroke-miterlimit: 2; opacity: 1;"><g class="fills"/><g class="errorbars"><g class="errorbar" style="opacity: 1;"><path class="yerror" d="M79.65,529.43h8m-4,0V529.43m-4,0h8" style="vector-effect: none; stroke-width: 2px; stroke: rgb(102, 166, 30); stroke-opacity: 1;"/></g><g class="errorbar" style="opacity: 1;"><path class="yerror" d="M156.74,529.43h8m-4,0V529.43m-4,0h8" style="vector-effect: none; stroke-width: 2px; stroke: rgb(102, 166, 30); stroke-opacity: 1;"/></g><g class="errorbar" style="opacity: 1;"><path class="yerror" d="M233.82,529.43h8m-4,0V529.43m-4,0h8" style="vector-effect: none; stroke-width: 2px; stroke: rgb(102, 166, 30); stroke-opacity: 1;"/></g><g class="errorbar" style="opacity: 1;"><path class="yerror" d="M310.91,529.43h8m-4,0V529.43m-4,0h8" style="vector-effect: none; stroke-width: 2px; stroke: rgb(102, 166, 30); stroke-opacity: 1;"/></g><g class="errorbar" style="opacity: 1;"><path class="yerror" d="M387.99,529.43h8m-4,0V529.43m-4,0h8" style="vector-effect: none; stroke-width: 2px; stroke: rgb(102, 166, 30); stroke-opacity: 1;"/></g><g class="errorbar" style="opacity: 1;"><path class="yerror" d="M465.08,529.43h8m-4,0V529.43m-4,0h8" style="vector-effect: none; stroke-width: 2px; stroke: rgb(102, 166, 30); stroke-opacity: 1;"/></g><g class="errorbar" style="opacity: 1;"><path class="yerror" d="M542.16,529.43h8m-4,0V529.43m-4,0h8" style="vector-effect: none; stroke-width: 2px; stroke: rgb(102, 166, 30); stroke-opacity: 1;"/></g><g class="errorbar" style="opacity: 1;"><path class="yerror" d="M619.25,529.43h8m-4,0V529.43m-4,0h8" style="vector-effect: none; stroke-width: 2px; stroke: rgb(102, 166, 30); stroke-opacity: 1;"/></g><g class="errorbar" style="opacity: 1;"><path class="yerror" d="M696.34,529.43h8m-4,0V529.43m-4,0h8" style="vector-effect: none; stroke-width: 2px; stroke: rgb(102, 166, 30); stroke-opacity: 1;"/></g><g class="errorbar" style="opacity: 1;"><path class="yerror" d="M773.42,529.43h8m-4,0V529.43m-4,0h8" style="vector-effect: none; stroke-width: 2px; stroke: rgb(102, 166, 30); stroke-opacity: 1;"/></g><g class="errorbar" style="opacity: 1;"><path class="yerror" d="M850.51,529.43h8m-4,0V529.43m-4,0h8" style="vector-effect: none; stroke-width: 2px; stroke: rgb(102, 166, 30); stroke-opacity: 1;"/></g><g class="errorbar" style="opacity: 1;"><path class="yerror" d="M927.59,529.43h8m-4,0V529.43m-4,0h8" style="vector-effect: none; stroke-width: 2px; stroke: rgb(102, 166, 30); stroke-opacity: 1;"/></g><g class="errorbar" style="opacity: 1;"><path class="yerror" d="M1004.68,529.43h8m-4,0V529.43m-4,0h8" style="vector-effect: none; stroke-width: 2px; stroke: rgb(102, 166, 30); stroke-opacity: 1;"/></g><g class="errorbar" style="opacity: 1;"><path class="yerror" d="M1081.76,529.43h8m-4,0V529.43m-4,0h8" style="vector-effect: none; stroke-width: 2px; stroke: rgb(102, 166, 30); stroke-opacity: 1;"/></g><g class="errorbar" style="opacity: 1;"><path class="yerror" d="M1158.85,529.43h8m-4,0V529.43m-4,0h8" style="vector-effect: none; stroke-width: 2px; stroke: rgb(102, 166, 30); stroke-opacity: 1;"/></g></g><g class="lines"><path class="js-line" d="M83.65,529.43L1162.85,529.43" style="vector-effect: none; fill: none; stroke: rgb(102, 166, 30); stroke-opacity: 1; stroke-width: 2px; opacity: 1;"/></g><g class="points"><path class="point" transform="translate(83.65,529.43)" d="M3,0A3,3 0 1,1 0,-3A3,3 0 0,1 3,0Z" style="opacity: 1; stroke-width: 0px; fill: rgb(102, 166, 30); fill-opacity: 1;"/><path class="point" transform="translate(160.74,529.43)" d="M3,0A3,3 0 1,1 0,-3A3,3 0 0,1 3,0Z" style="opacity: 1; stroke-width: 0px; fill: rgb(102, 166, 30); fill-opacity: 1;"/><path class="point" transform="translate(237.82,529.43)" d="M3,0A3,3 0 1,1 0,-3A3,3 0 0,1 3,0Z" style="opacity: 1; stroke-width: 0px; fill: rgb(102, 166, 30); fill-opacity: 1;"/><path class="point" transform="translate(314.91,529.43)" d="M3,0A3,3 0 1,1 0,-3A3,3 0 0,1 3,0Z" style="opacity: 1; stroke-width: 0px; fill: rgb(102, 166, 30); fill-opacity: 1;"/><path class="point" transform="translate(391.99,529.43)" d="M3,0A3,3 0 1,1 0,-3A3,3 0 0,1 3,0Z" style="opacity: 1; stroke-width: 0px; fill: rgb(102, 166, 30); fill-opacity: 1;"/><path class="point" transform="translate(469.08,529.43)" d="M3,0A3,3 0 1,1 0,-3A3,3 0 0,1 3,0Z" style="opacity: 1; stroke-width: 0px; fill: rgb(102, 166, 30); fill-opacity: 1;"/><path class="point" transform="translate(546.16,529.43)" d="M3,0A3,3 0 1,1 0,-3A3,3 0 0,1 3,0Z" style="opacity: 1; stroke-width: 0px; fill: rgb(102, 166, 30); fill-opacity: 1;"/><path class="point" transform="translate(623.25,529.43)" d="M3,0A3,3 0 1,1 0,-3A3,3 0 0,1 3,0Z" style="opacity: 1; stroke-width: 0px; fill: rgb(102, 166, 30); fill-opacity: 1;"/><path class="point" transform="translate(700.34,529.43)" d="M3,0A3,3 0 1,1 0,-3A3,3 0 0,1 3,0Z" style="opacity: 1; stroke-width: 0px; fill: rgb(102, 166, 30); fill-opacity: 1;"/><path class="point" transform="translate(777.42,529.43)" d="M3,0A3,3 0 1,1 0,-3A3,3 0 0,1 3,0Z" style="opacity: 1; stroke-width: 0px; fill: rgb(102, 166, 30); fill-opacity: 1;"/><path class="point" transform="translate(854.51,529.43)" d="M3,0A3,3 0 1,1 0,-3A3,3 0 0,1 3,0Z" style="opacity: 1; stroke-width: 0px; fill: rgb(102, 166, 30); fill-opacity: 1;"/><path class="point" transform="translate(931.59,529.43)" d="M3,0A3,3 0 1,1 0,-3A3,3 0 0,1 3,0Z" style="opacity: 1; stroke-width: 0px; fill: rgb(102, 166, 30); fill-opacity: 1;"/><path class="point" transform="translate(1008.68,529.43)" d="M3,0A3,3 0 1,1 0,-3A3,3 0 0,1 3,0Z" style="opacity: 1; stroke-width: 0px; fill: rgb(102, 166, 30); fill-opacity: 1;"/><path class="point" transform="translate(1085.76,529.43)" d="M3,0A3,3 0 1,1 0,-3A3,3 0 0,1 3,0Z" style="opacity: 1; stroke-width: 0px; fill: rgb(102, 166, 30); fill-opacity: 1;"/><path class="point" transform="translate(1162.85,529.43)" d="M3,0A3,3 0 1,1 0,-3A3,3 0 0,1 3,0Z" style="opacity: 1; stroke-width: 0px; fill: rgb(102, 166, 30); fill-opacity: 1;"/></g><g class="text"/></g></g></g></g><path class="xlines-above crisp" d="M0,0" style="fill: none;"/><path class="ylines-above crisp" d="M0,0" style="fill: none;"/><g class="overlines-above"/><g class="xaxislayer-above"><g class="xtick"><text text-anchor="middle" x="0" y="743" transform="translate(176.4,0)" style="font-family: Verdana; font-size: 22px; fill: rgb(0, 0, 0); fill-opacity: 1; white-space: pre; opacity: 1;">S_</text></g><g class="xtick"><text text-anchor="middle" x="0" y="743" style="font-family: Verdana; font-size: 22px; fill: rgb(0, 0, 0); fill-opacity: 1; white-space: pre; opacity: 1;" transform="translate(253.49,0)">G_</text></g><g class="xtick"><text text-anchor="middle" x="0" y="743" style="font-family: Verdana; font-size: 22px; fill: rgb(0, 0, 0); fill-opacity: 1; white-space: pre; opacity: 1;" transform="translate(330.57,0)">m_</text></g><g class="xtick"><text text-anchor="middle" x="0" y="743" style="font-family: Verdana; font-size: 22px; fill: rgb(0, 0, 0); fill-opacity: 1; white-space: pre; opacity: 1;" transform="translate(407.66,0)">P_</text></g><g class="xtick"><text text-anchor="middle" x="0" y="743" style="font-family: Verdana; font-size: 22px; fill: rgb(0, 0, 0); fill-opacity: 1; white-space: pre; opacity: 1;" transform="translate(484.74,0)">N_</text></g><g class="xtick"><text text-anchor="middle" x="0" y="743" style="font-family: Verdana; font-size: 22px; fill: rgb(0, 0, 0); fill-opacity: 1; white-space: pre; opacity: 1;" transform="translate(561.8299999999999,0)">S</text></g><g class="xtick"><text text-anchor="middle" x="0" y="743" style="font-family: Verdana; font-size: 22px; fill: rgb(0, 0, 0); fill-opacity: 1; white-space: pre; opacity: 1;" transform="translate(638.91,0)">G</text></g><g class="xtick"><text text-anchor="middle" x="0" y="743" style="font-family: Verdana; font-size: 22px; fill: rgb(0, 0, 0); fill-opacity: 1; white-space: pre; opacity: 1;" transform="translate(716,0)">m</text></g><g class="xtick"><text text-anchor="middle" x="0" y="743" style="font-family: Verdana; font-size: 22px; fill: rgb(0, 0, 0); fill-opacity: 1; white-space: pre; opacity: 1;" transform="translate(793.09,0)">P</text></g><g class="xtick"><text text-anchor="middle" x="0" y="743" style="font-family: Verdana; font-size: 22px; fill: rgb(0, 0, 0); fill-opacity: 1; white-space: pre; opacity: 1;" transform="translate(870.17,0)">N</text></g><g class="xtick"><text text-anchor="middle" x="0" y="743" style="font-family: Verdana; font-size: 22px; fill: rgb(0, 0, 0); fill-opacity: 1; white-space: pre; opacity: 1;" transform="translate(947.26,0)">S^</text></g><g class="xtick"><text text-anchor="middle" x="0" y="743" style="font-family: Verdana; font-size: 22px; fill: rgb(0, 0, 0); fill-opacity: 1; white-space: pre; opacity: 1;" transform="translate(1024.3400000000001,0)">G^</text></g><g class="xtick"><text text-anchor="middle" x="0" y="743" style="font-family: Verdana; font-size: 22px; fill: rgb(0, 0, 0); fill-opacity: 1; white-space: pre; opacity: 1;" transform="translate(1101.4299999999998,0)">m^</text></g><g class="xtick"><text text-anchor="middle" x="0" y="743" style="font-family: Verdana; font-size: 22px; fill: rgb(0, 0, 0); fill-opacity: 1; white-space: pre; opacity: 1;" transform="translate(1178.51,0)">P^</text></g><g class="xtick"><text text-anchor="middle" x="0" y="743" style="font-family: Verdana; font-size: 22px; fill: rgb(0, 0, 0); fill-opacity: 1; white-space: pre; opacity: 1;" transform="translate(1255.6,0)">N^</text></g></g><g class="yaxislayer-above"><g class="ytick"><text text-anchor="end" x="101" y="7.699999999999999" transform="translate(0,629.43)" style="font-family: Verdana; font-size: 22px; fill: rgb(0, 0, 0); fill-opacity: 1; white-space: pre; opacity: 1;">0</text></g><g class="ytick"><text text-anchor="end" x="101" y="7.699999999999999" style="font-family: Verdana; font-size: 22px; fill: rgb(0, 0, 0); fill-opacity: 1; white-space: pre; opacity: 1;" transform="translate(0,511.64)">500</text></g><g class="ytick"><text text-anchor="end" x="101" y="7.699999999999999" style="font-family: Verdana; font-size: 22px; fill: rgb(0, 0, 0); fill-opacity: 1; white-space: pre; opacity: 1;" transform="translate(0,393.84)">1000</text></g><g class="ytick"><text text-anchor="end" x="101" y="7.699999999999999" style="font-family: Verdana; font-size: 22px; fill: rgb(0, 0, 0); fill-opacity: 1; white-space: pre; opacity: 1;" transform="translate(0,276.05)">1500</text></g><g class="ytick"><text text-anchor="end" x="101" y="7.699999999999999" style="font-family: Verdana; font-size: 22px; fill: rgb(0, 0, 0); fill-opacity: 1; white-space: pre; opacity: 1;" transform="translate(0,158.26)">2000</text></g></g><g class="overaxes-above"/></g></g><g class="polarlayer"/><g class="smithlayer"/><g class="ternarylayer"/><g class="geolayer"/><g class="funnelarealayer"/><g class="pielayer"/><g class="iciclelayer"/><g class="treemaplayer"/><g class="sunburstlayer"/><g class="glimages"/><defs id="topdefs-f15366"><g class="clips"/><clipPath id="legendf15366"><rect width="233" height="168" x="0" y="0"/></clipPath></defs><g class="layer-above"><g class="imagelayer"/><g class="shapelayer"/></g><g class="infolayer"><g class="legend" pointer-events="all" transform="translate(1354.56,100)"><rect class="bg" shape-rendering="crispEdges" style="stroke: rgb(68, 68, 68); stroke-opacity: 1; fill: rgb(255, 255, 255); fill-opacity: 1; stroke-width: 0px;" width="233" height="168" x="0" y="0"/><g class="scrollbox" transform="" clip-path="url(#legendf15366)"><g class="groups"><g class="traces" transform="translate(0,20.8)" style="opacity: 1;"><text class="legendtext" text-anchor="start" x="40" y="8.58" style="font-family: Verdana; font-size: 22px; fill: rgb(0, 0, 0); fill-opacity: 1; white-space: pre;">Full Model</text><g class="layers" style="opacity: 1;"><g class="legendfill"/><g class="legendlines"><path class="js-line" d="M5,0h30" style="fill: none; stroke: rgb(27, 158, 119); stroke-opacity: 1; stroke-width: 2px;"/></g><g class="legendsymbols"><g class="legendpoints"><path class="scatterpts" transform="translate(20,0)" d="M3,0A3,3 0 1,1 0,-3A3,3 0 0,1 3,0Z" style="opacity: 1; stroke-width: 0px; fill: rgb(27, 158, 119); fill-opacity: 1;"/></g></g></g><rect class="legendtoggle" x="0" y="-15.8" width="227.953125" height="31.6" style="fill: rgb(0, 0, 0); fill-opacity: 0;"/></g><g class="traces" transform="translate(0,52.400000000000006)" style="opacity: 1;"><text class="legendtext" text-anchor="start" x="40" y="8.58" style="font-family: Verdana; font-size: 22px; fill: rgb(0, 0, 0); fill-opacity: 1; white-space: pre;">Emphasis + Tags</text><g class="layers" style="opacity: 1;"><g class="legendfill"/><g class="legendlines"><path class="js-line" d="M5,0h30" style="fill: none; stroke: rgb(217, 95, 2); stroke-opacity: 1; stroke-width: 2px;"/></g><g class="legendsymbols"><g class="legendpoints"><path class="scatterpts" transform="translate(20,0)" d="M3,0A3,3 0 1,1 0,-3A3,3 0 0,1 3,0Z" style="opacity: 1; stroke-width: 0px; fill: rgb(217, 95, 2); fill-opacity: 1;"/></g></g></g><rect class="legendtoggle" x="0" y="-15.8" width="227.953125" height="31.6" style="fill: rgb(0, 0, 0); fill-opacity: 0;"/></g><g class="traces" transform="translate(0,84)" style="opacity: 1;"><text class="legendtext" text-anchor="start" x="40" y="8.58" style="font-family: Verdana; font-size: 22px; fill: rgb(0, 0, 0); fill-opacity: 1; white-space: pre;">Emphasis-Only</text><g class="layers" style="opacity: 1;"><g class="legendfill"/><g class="legendlines"><path class="js-line" d="M5,0h30" style="fill: none; stroke: rgb(117, 112, 179); stroke-opacity: 1; stroke-width: 2px;"/></g><g class="legendsymbols"><g class="legendpoints"><path class="scatterpts" transform="translate(20,0)" d="M3,0A3,3 0 1,1 0,-3A3,3 0 0,1 3,0Z" style="opacity: 1; stroke-width: 0px; fill: rgb(117, 112, 179); fill-opacity: 1;"/></g></g></g><rect class="legendtoggle" x="0" y="-15.8" width="227.953125" height="31.6" style="fill: rgb(0, 0, 0); fill-opacity: 0;"/></g><g class="traces" transform="translate(0,115.60000000000001)" style="opacity: 1;"><text class="legendtext" text-anchor="start" x="40" y="8.58" style="font-family: Verdana; font-size: 22px; fill: rgb(0, 0, 0); fill-opacity: 1; white-space: pre;">Baseline</text><g class="layers" style="opacity: 1;"><g class="legendfill"/><g class="legendlines"><path class="js-line" d="M5,0h30" style="fill: none; stroke: rgb(231, 41, 138); stroke-opacity: 1; stroke-width: 2px;"/></g><g class="legendsymbols"><g class="legendpoints"><path class="scatterpts" transform="translate(20,0)" d="M3,0A3,3 0 1,1 0,-3A3,3 0 0,1 3,0Z" style="opacity: 1; stroke-width: 0px; fill: rgb(231, 41, 138); fill-opacity: 1;"/></g></g></g><rect class="legendtoggle" x="0" y="-15.8" width="227.953125" height="31.6" style="fill: rgb(0, 0, 0); fill-opacity: 0;"/></g><g class="traces" transform="translate(0,147.20000000000002)" style="opacity: 1;"><text class="legendtext" text-anchor="start" x="40" y="8.58" style="font-family: Verdana; font-size: 22px; fill: rgb(0, 0, 0); fill-opacity: 1; white-space: pre;">Dataset</text><g class="layers" style="opacity: 1;"><g class="legendfill"/><g class="legendlines"><path class="js-line" d="M5,0h30" style="fill: none; stroke: rgb(102, 166, 30); stroke-opacity: 1; stroke-width: 2px;"/></g><g class="legendsymbols"><g class="legendpoints"><path class="scatterpts" transform="translate(20,0)" d="M3,0A3,3 0 1,1 0,-3A3,3 0 0,1 3,0Z" style="opacity: 1; stroke-width: 0px; fill: rgb(102, 166, 30); fill-opacity: 1;"/></g></g></g><rect class="legendtoggle" x="0" y="-15.8" width="227.953125" height="31.6" style="fill: rgb(0, 0, 0); fill-opacity: 0;"/></g></g></g><rect class="scrollbar" rx="20" ry="3" width="0" height="0" style="fill: rgb(128, 139, 164); fill-opacity: 1;" x="0" y="0"/></g><g class="g-gtitle"/><g class="g-xtitle"><text class="xtitle" x="716" y="780.7" text-anchor="middle" style="opacity: 1; font-family: Verdana; font-size: 26px; fill: rgb(0, 0, 0); fill-opacity: 1; white-space: pre;">Note</text></g><g class="g-ytitle" transform="translate(4.552734375,0)"><text class="ytitle" transform="rotate(-90,21.446875000000006,410)" x="21.446875000000006" y="410" text-anchor="middle" style="opacity: 1; font-family: Verdana; font-size: 26px; fill: rgb(0, 0, 0); fill-opacity: 1; white-space: pre;">Euclidean Distance</text></g></g></svg>